%TF.GenerationSoftware,KiCad,Pcbnew,(5.1.8)-1*%
%TF.CreationDate,2021-01-01T00:53:38+08:00*%
%TF.ProjectId,MCP2517FD-Breakout,4d435032-3531-4374-9644-2d427265616b,rev?*%
%TF.SameCoordinates,Original*%
%TF.FileFunction,Copper,L1,Top*%
%TF.FilePolarity,Positive*%
%FSLAX46Y46*%
G04 Gerber Fmt 4.6, Leading zero omitted, Abs format (unit mm)*
G04 Created by KiCad (PCBNEW (5.1.8)-1) date 2021-01-01 00:53:38*
%MOMM*%
%LPD*%
G01*
G04 APERTURE LIST*
%TA.AperFunction,Profile*%
%ADD10C,0.050000*%
%TD*%
%TA.AperFunction,ComponentPad*%
%ADD11C,1.500000*%
%TD*%
%TA.AperFunction,SMDPad,CuDef*%
%ADD12R,1.500000X2.000000*%
%TD*%
%TA.AperFunction,SMDPad,CuDef*%
%ADD13R,3.800000X2.000000*%
%TD*%
%TA.AperFunction,SMDPad,CuDef*%
%ADD14R,1.000000X1.000000*%
%TD*%
%TA.AperFunction,ComponentPad*%
%ADD15O,1.700000X1.700000*%
%TD*%
%TA.AperFunction,ComponentPad*%
%ADD16R,1.700000X1.700000*%
%TD*%
%TA.AperFunction,ViaPad*%
%ADD17C,0.800000*%
%TD*%
%TA.AperFunction,Conductor*%
%ADD18C,0.508000*%
%TD*%
%TA.AperFunction,Conductor*%
%ADD19C,0.254000*%
%TD*%
G04 APERTURE END LIST*
D10*
X157480000Y-86360000D02*
X157480000Y-107950000D01*
X119888000Y-86360000D02*
X116840000Y-86360000D01*
X157480000Y-86360000D02*
X119888000Y-86360000D01*
X126746000Y-107950000D02*
X157480000Y-107950000D01*
X116840000Y-107950000D02*
X126746000Y-107950000D01*
X116840000Y-86360000D02*
X116840000Y-107950000D01*
D11*
%TO.P,Y1,2*%
%TO.N,Net-(C3-Pad1)*%
X130610000Y-102870000D03*
%TO.P,Y1,1*%
%TO.N,Net-(C2-Pad1)*%
X125730000Y-102870000D03*
%TD*%
%TO.P,U3,8*%
%TO.N,/xSTBY*%
%TA.AperFunction,SMDPad,CuDef*%
G36*
G01*
X150364000Y-94221000D02*
X150364000Y-93921000D01*
G75*
G02*
X150514000Y-93771000I150000J0D01*
G01*
X152164000Y-93771000D01*
G75*
G02*
X152314000Y-93921000I0J-150000D01*
G01*
X152314000Y-94221000D01*
G75*
G02*
X152164000Y-94371000I-150000J0D01*
G01*
X150514000Y-94371000D01*
G75*
G02*
X150364000Y-94221000I0J150000D01*
G01*
G37*
%TD.AperFunction*%
%TO.P,U3,7*%
%TO.N,/CANH*%
%TA.AperFunction,SMDPad,CuDef*%
G36*
G01*
X150364000Y-95491000D02*
X150364000Y-95191000D01*
G75*
G02*
X150514000Y-95041000I150000J0D01*
G01*
X152164000Y-95041000D01*
G75*
G02*
X152314000Y-95191000I0J-150000D01*
G01*
X152314000Y-95491000D01*
G75*
G02*
X152164000Y-95641000I-150000J0D01*
G01*
X150514000Y-95641000D01*
G75*
G02*
X150364000Y-95491000I0J150000D01*
G01*
G37*
%TD.AperFunction*%
%TO.P,U3,6*%
%TO.N,/CANL*%
%TA.AperFunction,SMDPad,CuDef*%
G36*
G01*
X150364000Y-96761000D02*
X150364000Y-96461000D01*
G75*
G02*
X150514000Y-96311000I150000J0D01*
G01*
X152164000Y-96311000D01*
G75*
G02*
X152314000Y-96461000I0J-150000D01*
G01*
X152314000Y-96761000D01*
G75*
G02*
X152164000Y-96911000I-150000J0D01*
G01*
X150514000Y-96911000D01*
G75*
G02*
X150364000Y-96761000I0J150000D01*
G01*
G37*
%TD.AperFunction*%
%TO.P,U3,5*%
%TO.N,+3V3*%
%TA.AperFunction,SMDPad,CuDef*%
G36*
G01*
X150364000Y-98031000D02*
X150364000Y-97731000D01*
G75*
G02*
X150514000Y-97581000I150000J0D01*
G01*
X152164000Y-97581000D01*
G75*
G02*
X152314000Y-97731000I0J-150000D01*
G01*
X152314000Y-98031000D01*
G75*
G02*
X152164000Y-98181000I-150000J0D01*
G01*
X150514000Y-98181000D01*
G75*
G02*
X150364000Y-98031000I0J150000D01*
G01*
G37*
%TD.AperFunction*%
%TO.P,U3,4*%
%TO.N,/RXCAN*%
%TA.AperFunction,SMDPad,CuDef*%
G36*
G01*
X145414000Y-98031000D02*
X145414000Y-97731000D01*
G75*
G02*
X145564000Y-97581000I150000J0D01*
G01*
X147214000Y-97581000D01*
G75*
G02*
X147364000Y-97731000I0J-150000D01*
G01*
X147364000Y-98031000D01*
G75*
G02*
X147214000Y-98181000I-150000J0D01*
G01*
X145564000Y-98181000D01*
G75*
G02*
X145414000Y-98031000I0J150000D01*
G01*
G37*
%TD.AperFunction*%
%TO.P,U3,3*%
%TO.N,+5V*%
%TA.AperFunction,SMDPad,CuDef*%
G36*
G01*
X145414000Y-96761000D02*
X145414000Y-96461000D01*
G75*
G02*
X145564000Y-96311000I150000J0D01*
G01*
X147214000Y-96311000D01*
G75*
G02*
X147364000Y-96461000I0J-150000D01*
G01*
X147364000Y-96761000D01*
G75*
G02*
X147214000Y-96911000I-150000J0D01*
G01*
X145564000Y-96911000D01*
G75*
G02*
X145414000Y-96761000I0J150000D01*
G01*
G37*
%TD.AperFunction*%
%TO.P,U3,2*%
%TO.N,GND*%
%TA.AperFunction,SMDPad,CuDef*%
G36*
G01*
X145414000Y-95491000D02*
X145414000Y-95191000D01*
G75*
G02*
X145564000Y-95041000I150000J0D01*
G01*
X147214000Y-95041000D01*
G75*
G02*
X147364000Y-95191000I0J-150000D01*
G01*
X147364000Y-95491000D01*
G75*
G02*
X147214000Y-95641000I-150000J0D01*
G01*
X145564000Y-95641000D01*
G75*
G02*
X145414000Y-95491000I0J150000D01*
G01*
G37*
%TD.AperFunction*%
%TO.P,U3,1*%
%TO.N,/TXCAN*%
%TA.AperFunction,SMDPad,CuDef*%
G36*
G01*
X145414000Y-94221000D02*
X145414000Y-93921000D01*
G75*
G02*
X145564000Y-93771000I150000J0D01*
G01*
X147214000Y-93771000D01*
G75*
G02*
X147364000Y-93921000I0J-150000D01*
G01*
X147364000Y-94221000D01*
G75*
G02*
X147214000Y-94371000I-150000J0D01*
G01*
X145564000Y-94371000D01*
G75*
G02*
X145414000Y-94221000I0J150000D01*
G01*
G37*
%TD.AperFunction*%
%TD*%
D12*
%TO.P,U2,1*%
%TO.N,GND*%
X138698000Y-88036000D03*
%TO.P,U2,3*%
%TO.N,+5V*%
X134098000Y-88036000D03*
%TO.P,U2,2*%
%TO.N,+3V3*%
X136398000Y-88036000D03*
D13*
X136398000Y-94336000D03*
%TD*%
%TO.P,U1,14*%
%TO.N,+3V3*%
%TA.AperFunction,SMDPad,CuDef*%
G36*
G01*
X123848000Y-94258000D02*
X123548000Y-94258000D01*
G75*
G02*
X123398000Y-94108000I0J150000D01*
G01*
X123398000Y-92458000D01*
G75*
G02*
X123548000Y-92308000I150000J0D01*
G01*
X123848000Y-92308000D01*
G75*
G02*
X123998000Y-92458000I0J-150000D01*
G01*
X123998000Y-94108000D01*
G75*
G02*
X123848000Y-94258000I-150000J0D01*
G01*
G37*
%TD.AperFunction*%
%TO.P,U1,13*%
%TO.N,/nCS*%
%TA.AperFunction,SMDPad,CuDef*%
G36*
G01*
X125118000Y-94258000D02*
X124818000Y-94258000D01*
G75*
G02*
X124668000Y-94108000I0J150000D01*
G01*
X124668000Y-92458000D01*
G75*
G02*
X124818000Y-92308000I150000J0D01*
G01*
X125118000Y-92308000D01*
G75*
G02*
X125268000Y-92458000I0J-150000D01*
G01*
X125268000Y-94108000D01*
G75*
G02*
X125118000Y-94258000I-150000J0D01*
G01*
G37*
%TD.AperFunction*%
%TO.P,U1,12*%
%TO.N,/SDO*%
%TA.AperFunction,SMDPad,CuDef*%
G36*
G01*
X126388000Y-94258000D02*
X126088000Y-94258000D01*
G75*
G02*
X125938000Y-94108000I0J150000D01*
G01*
X125938000Y-92458000D01*
G75*
G02*
X126088000Y-92308000I150000J0D01*
G01*
X126388000Y-92308000D01*
G75*
G02*
X126538000Y-92458000I0J-150000D01*
G01*
X126538000Y-94108000D01*
G75*
G02*
X126388000Y-94258000I-150000J0D01*
G01*
G37*
%TD.AperFunction*%
%TO.P,U1,11*%
%TO.N,/SDI*%
%TA.AperFunction,SMDPad,CuDef*%
G36*
G01*
X127658000Y-94258000D02*
X127358000Y-94258000D01*
G75*
G02*
X127208000Y-94108000I0J150000D01*
G01*
X127208000Y-92458000D01*
G75*
G02*
X127358000Y-92308000I150000J0D01*
G01*
X127658000Y-92308000D01*
G75*
G02*
X127808000Y-92458000I0J-150000D01*
G01*
X127808000Y-94108000D01*
G75*
G02*
X127658000Y-94258000I-150000J0D01*
G01*
G37*
%TD.AperFunction*%
%TO.P,U1,10*%
%TO.N,/SCK*%
%TA.AperFunction,SMDPad,CuDef*%
G36*
G01*
X128928000Y-94258000D02*
X128628000Y-94258000D01*
G75*
G02*
X128478000Y-94108000I0J150000D01*
G01*
X128478000Y-92458000D01*
G75*
G02*
X128628000Y-92308000I150000J0D01*
G01*
X128928000Y-92308000D01*
G75*
G02*
X129078000Y-92458000I0J-150000D01*
G01*
X129078000Y-94108000D01*
G75*
G02*
X128928000Y-94258000I-150000J0D01*
G01*
G37*
%TD.AperFunction*%
%TO.P,U1,9*%
%TO.N,/xSTBY*%
%TA.AperFunction,SMDPad,CuDef*%
G36*
G01*
X130198000Y-94258000D02*
X129898000Y-94258000D01*
G75*
G02*
X129748000Y-94108000I0J150000D01*
G01*
X129748000Y-92458000D01*
G75*
G02*
X129898000Y-92308000I150000J0D01*
G01*
X130198000Y-92308000D01*
G75*
G02*
X130348000Y-92458000I0J-150000D01*
G01*
X130348000Y-94108000D01*
G75*
G02*
X130198000Y-94258000I-150000J0D01*
G01*
G37*
%TD.AperFunction*%
%TO.P,U1,8*%
%TO.N,/GPIO1*%
%TA.AperFunction,SMDPad,CuDef*%
G36*
G01*
X131468000Y-94258000D02*
X131168000Y-94258000D01*
G75*
G02*
X131018000Y-94108000I0J150000D01*
G01*
X131018000Y-92458000D01*
G75*
G02*
X131168000Y-92308000I150000J0D01*
G01*
X131468000Y-92308000D01*
G75*
G02*
X131618000Y-92458000I0J-150000D01*
G01*
X131618000Y-94108000D01*
G75*
G02*
X131468000Y-94258000I-150000J0D01*
G01*
G37*
%TD.AperFunction*%
%TO.P,U1,7*%
%TO.N,GND*%
%TA.AperFunction,SMDPad,CuDef*%
G36*
G01*
X131468000Y-99208000D02*
X131168000Y-99208000D01*
G75*
G02*
X131018000Y-99058000I0J150000D01*
G01*
X131018000Y-97408000D01*
G75*
G02*
X131168000Y-97258000I150000J0D01*
G01*
X131468000Y-97258000D01*
G75*
G02*
X131618000Y-97408000I0J-150000D01*
G01*
X131618000Y-99058000D01*
G75*
G02*
X131468000Y-99208000I-150000J0D01*
G01*
G37*
%TD.AperFunction*%
%TO.P,U1,6*%
%TO.N,Net-(C3-Pad1)*%
%TA.AperFunction,SMDPad,CuDef*%
G36*
G01*
X130198000Y-99208000D02*
X129898000Y-99208000D01*
G75*
G02*
X129748000Y-99058000I0J150000D01*
G01*
X129748000Y-97408000D01*
G75*
G02*
X129898000Y-97258000I150000J0D01*
G01*
X130198000Y-97258000D01*
G75*
G02*
X130348000Y-97408000I0J-150000D01*
G01*
X130348000Y-99058000D01*
G75*
G02*
X130198000Y-99208000I-150000J0D01*
G01*
G37*
%TD.AperFunction*%
%TO.P,U1,5*%
%TO.N,Net-(C2-Pad1)*%
%TA.AperFunction,SMDPad,CuDef*%
G36*
G01*
X128928000Y-99208000D02*
X128628000Y-99208000D01*
G75*
G02*
X128478000Y-99058000I0J150000D01*
G01*
X128478000Y-97408000D01*
G75*
G02*
X128628000Y-97258000I150000J0D01*
G01*
X128928000Y-97258000D01*
G75*
G02*
X129078000Y-97408000I0J-150000D01*
G01*
X129078000Y-99058000D01*
G75*
G02*
X128928000Y-99208000I-150000J0D01*
G01*
G37*
%TD.AperFunction*%
%TO.P,U1,4*%
%TO.N,/nINT*%
%TA.AperFunction,SMDPad,CuDef*%
G36*
G01*
X127658000Y-99208000D02*
X127358000Y-99208000D01*
G75*
G02*
X127208000Y-99058000I0J150000D01*
G01*
X127208000Y-97408000D01*
G75*
G02*
X127358000Y-97258000I150000J0D01*
G01*
X127658000Y-97258000D01*
G75*
G02*
X127808000Y-97408000I0J-150000D01*
G01*
X127808000Y-99058000D01*
G75*
G02*
X127658000Y-99208000I-150000J0D01*
G01*
G37*
%TD.AperFunction*%
%TO.P,U1,3*%
%TO.N,Net-(TP1-Pad1)*%
%TA.AperFunction,SMDPad,CuDef*%
G36*
G01*
X126388000Y-99208000D02*
X126088000Y-99208000D01*
G75*
G02*
X125938000Y-99058000I0J150000D01*
G01*
X125938000Y-97408000D01*
G75*
G02*
X126088000Y-97258000I150000J0D01*
G01*
X126388000Y-97258000D01*
G75*
G02*
X126538000Y-97408000I0J-150000D01*
G01*
X126538000Y-99058000D01*
G75*
G02*
X126388000Y-99208000I-150000J0D01*
G01*
G37*
%TD.AperFunction*%
%TO.P,U1,2*%
%TO.N,/RXCAN*%
%TA.AperFunction,SMDPad,CuDef*%
G36*
G01*
X125118000Y-99208000D02*
X124818000Y-99208000D01*
G75*
G02*
X124668000Y-99058000I0J150000D01*
G01*
X124668000Y-97408000D01*
G75*
G02*
X124818000Y-97258000I150000J0D01*
G01*
X125118000Y-97258000D01*
G75*
G02*
X125268000Y-97408000I0J-150000D01*
G01*
X125268000Y-99058000D01*
G75*
G02*
X125118000Y-99208000I-150000J0D01*
G01*
G37*
%TD.AperFunction*%
%TO.P,U1,1*%
%TO.N,/TXCAN*%
%TA.AperFunction,SMDPad,CuDef*%
G36*
G01*
X123848000Y-99208000D02*
X123548000Y-99208000D01*
G75*
G02*
X123398000Y-99058000I0J150000D01*
G01*
X123398000Y-97408000D01*
G75*
G02*
X123548000Y-97258000I150000J0D01*
G01*
X123848000Y-97258000D01*
G75*
G02*
X123998000Y-97408000I0J-150000D01*
G01*
X123998000Y-99058000D01*
G75*
G02*
X123848000Y-99208000I-150000J0D01*
G01*
G37*
%TD.AperFunction*%
%TD*%
D14*
%TO.P,TP1,1*%
%TO.N,Net-(TP1-Pad1)*%
X135890000Y-101346000D03*
%TD*%
%TO.P,R1,2*%
%TO.N,/GPIO1*%
%TA.AperFunction,SMDPad,CuDef*%
G36*
G01*
X138413500Y-100413000D02*
X137938500Y-100413000D01*
G75*
G02*
X137701000Y-100175500I0J237500D01*
G01*
X137701000Y-99675500D01*
G75*
G02*
X137938500Y-99438000I237500J0D01*
G01*
X138413500Y-99438000D01*
G75*
G02*
X138651000Y-99675500I0J-237500D01*
G01*
X138651000Y-100175500D01*
G75*
G02*
X138413500Y-100413000I-237500J0D01*
G01*
G37*
%TD.AperFunction*%
%TO.P,R1,1*%
%TO.N,Net-(D1-Pad1)*%
%TA.AperFunction,SMDPad,CuDef*%
G36*
G01*
X138413500Y-102238000D02*
X137938500Y-102238000D01*
G75*
G02*
X137701000Y-102000500I0J237500D01*
G01*
X137701000Y-101500500D01*
G75*
G02*
X137938500Y-101263000I237500J0D01*
G01*
X138413500Y-101263000D01*
G75*
G02*
X138651000Y-101500500I0J-237500D01*
G01*
X138651000Y-102000500D01*
G75*
G02*
X138413500Y-102238000I-237500J0D01*
G01*
G37*
%TD.AperFunction*%
%TD*%
D15*
%TO.P,J2,4*%
%TO.N,N/C*%
X154940000Y-92202000D03*
%TO.P,J2,3*%
%TO.N,/CANH*%
X154940000Y-94742000D03*
%TO.P,J2,2*%
%TO.N,/CANL*%
X154940000Y-97282000D03*
D16*
%TO.P,J2,1*%
%TO.N,GND*%
X154940000Y-99822000D03*
%TD*%
D15*
%TO.P,J1,7*%
%TO.N,GND*%
X119450000Y-103810000D03*
%TO.P,J1,6*%
%TO.N,/nINT*%
X119450000Y-101270000D03*
%TO.P,J1,5*%
%TO.N,/SCK*%
X119450000Y-98730000D03*
%TO.P,J1,4*%
%TO.N,/nCS*%
X119450000Y-96190000D03*
%TO.P,J1,3*%
%TO.N,/SDO*%
X119450000Y-93650000D03*
%TO.P,J1,2*%
%TO.N,/SDI*%
X119450000Y-91110000D03*
D16*
%TO.P,J1,1*%
%TO.N,+5V*%
X119450000Y-88570000D03*
%TD*%
%TO.P,D1,2*%
%TO.N,+3V3*%
%TA.AperFunction,SMDPad,CuDef*%
G36*
G01*
X140445500Y-100488000D02*
X139970500Y-100488000D01*
G75*
G02*
X139733000Y-100250500I0J237500D01*
G01*
X139733000Y-99675500D01*
G75*
G02*
X139970500Y-99438000I237500J0D01*
G01*
X140445500Y-99438000D01*
G75*
G02*
X140683000Y-99675500I0J-237500D01*
G01*
X140683000Y-100250500D01*
G75*
G02*
X140445500Y-100488000I-237500J0D01*
G01*
G37*
%TD.AperFunction*%
%TO.P,D1,1*%
%TO.N,Net-(D1-Pad1)*%
%TA.AperFunction,SMDPad,CuDef*%
G36*
G01*
X140445500Y-102238000D02*
X139970500Y-102238000D01*
G75*
G02*
X139733000Y-102000500I0J237500D01*
G01*
X139733000Y-101425500D01*
G75*
G02*
X139970500Y-101188000I237500J0D01*
G01*
X140445500Y-101188000D01*
G75*
G02*
X140683000Y-101425500I0J-237500D01*
G01*
X140683000Y-102000500D01*
G75*
G02*
X140445500Y-102238000I-237500J0D01*
G01*
G37*
%TD.AperFunction*%
%TD*%
%TO.P,C7,2*%
%TO.N,GND*%
%TA.AperFunction,SMDPad,CuDef*%
G36*
G01*
X144101500Y-95179000D02*
X143626500Y-95179000D01*
G75*
G02*
X143389000Y-94941500I0J237500D01*
G01*
X143389000Y-94341500D01*
G75*
G02*
X143626500Y-94104000I237500J0D01*
G01*
X144101500Y-94104000D01*
G75*
G02*
X144339000Y-94341500I0J-237500D01*
G01*
X144339000Y-94941500D01*
G75*
G02*
X144101500Y-95179000I-237500J0D01*
G01*
G37*
%TD.AperFunction*%
%TO.P,C7,1*%
%TO.N,+5V*%
%TA.AperFunction,SMDPad,CuDef*%
G36*
G01*
X144101500Y-96904000D02*
X143626500Y-96904000D01*
G75*
G02*
X143389000Y-96666500I0J237500D01*
G01*
X143389000Y-96066500D01*
G75*
G02*
X143626500Y-95829000I237500J0D01*
G01*
X144101500Y-95829000D01*
G75*
G02*
X144339000Y-96066500I0J-237500D01*
G01*
X144339000Y-96666500D01*
G75*
G02*
X144101500Y-96904000I-237500J0D01*
G01*
G37*
%TD.AperFunction*%
%TD*%
%TO.P,C6,2*%
%TO.N,GND*%
%TA.AperFunction,SMDPad,CuDef*%
G36*
G01*
X124785000Y-91169500D02*
X124785000Y-90694500D01*
G75*
G02*
X125022500Y-90457000I237500J0D01*
G01*
X125622500Y-90457000D01*
G75*
G02*
X125860000Y-90694500I0J-237500D01*
G01*
X125860000Y-91169500D01*
G75*
G02*
X125622500Y-91407000I-237500J0D01*
G01*
X125022500Y-91407000D01*
G75*
G02*
X124785000Y-91169500I0J237500D01*
G01*
G37*
%TD.AperFunction*%
%TO.P,C6,1*%
%TO.N,+3V3*%
%TA.AperFunction,SMDPad,CuDef*%
G36*
G01*
X123060000Y-91169500D02*
X123060000Y-90694500D01*
G75*
G02*
X123297500Y-90457000I237500J0D01*
G01*
X123897500Y-90457000D01*
G75*
G02*
X124135000Y-90694500I0J-237500D01*
G01*
X124135000Y-91169500D01*
G75*
G02*
X123897500Y-91407000I-237500J0D01*
G01*
X123297500Y-91407000D01*
G75*
G02*
X123060000Y-91169500I0J237500D01*
G01*
G37*
%TD.AperFunction*%
%TD*%
%TO.P,C5,2*%
%TO.N,GND*%
%TA.AperFunction,SMDPad,CuDef*%
G36*
G01*
X136723000Y-97011500D02*
X136723000Y-96536500D01*
G75*
G02*
X136960500Y-96299000I237500J0D01*
G01*
X137560500Y-96299000D01*
G75*
G02*
X137798000Y-96536500I0J-237500D01*
G01*
X137798000Y-97011500D01*
G75*
G02*
X137560500Y-97249000I-237500J0D01*
G01*
X136960500Y-97249000D01*
G75*
G02*
X136723000Y-97011500I0J237500D01*
G01*
G37*
%TD.AperFunction*%
%TO.P,C5,1*%
%TO.N,+3V3*%
%TA.AperFunction,SMDPad,CuDef*%
G36*
G01*
X134998000Y-97011500D02*
X134998000Y-96536500D01*
G75*
G02*
X135235500Y-96299000I237500J0D01*
G01*
X135835500Y-96299000D01*
G75*
G02*
X136073000Y-96536500I0J-237500D01*
G01*
X136073000Y-97011500D01*
G75*
G02*
X135835500Y-97249000I-237500J0D01*
G01*
X135235500Y-97249000D01*
G75*
G02*
X134998000Y-97011500I0J237500D01*
G01*
G37*
%TD.AperFunction*%
%TD*%
%TO.P,C4,2*%
%TO.N,GND*%
%TA.AperFunction,SMDPad,CuDef*%
G36*
G01*
X130826500Y-88717000D02*
X131301500Y-88717000D01*
G75*
G02*
X131539000Y-88954500I0J-237500D01*
G01*
X131539000Y-89554500D01*
G75*
G02*
X131301500Y-89792000I-237500J0D01*
G01*
X130826500Y-89792000D01*
G75*
G02*
X130589000Y-89554500I0J237500D01*
G01*
X130589000Y-88954500D01*
G75*
G02*
X130826500Y-88717000I237500J0D01*
G01*
G37*
%TD.AperFunction*%
%TO.P,C4,1*%
%TO.N,+5V*%
%TA.AperFunction,SMDPad,CuDef*%
G36*
G01*
X130826500Y-86992000D02*
X131301500Y-86992000D01*
G75*
G02*
X131539000Y-87229500I0J-237500D01*
G01*
X131539000Y-87829500D01*
G75*
G02*
X131301500Y-88067000I-237500J0D01*
G01*
X130826500Y-88067000D01*
G75*
G02*
X130589000Y-87829500I0J237500D01*
G01*
X130589000Y-87229500D01*
G75*
G02*
X130826500Y-86992000I237500J0D01*
G01*
G37*
%TD.AperFunction*%
%TD*%
%TO.P,C1,2*%
%TO.N,GND*%
%TA.AperFunction,SMDPad,CuDef*%
G36*
G01*
X150043000Y-99838500D02*
X150043000Y-100313500D01*
G75*
G02*
X149805500Y-100551000I-237500J0D01*
G01*
X149205500Y-100551000D01*
G75*
G02*
X148968000Y-100313500I0J237500D01*
G01*
X148968000Y-99838500D01*
G75*
G02*
X149205500Y-99601000I237500J0D01*
G01*
X149805500Y-99601000D01*
G75*
G02*
X150043000Y-99838500I0J-237500D01*
G01*
G37*
%TD.AperFunction*%
%TO.P,C1,1*%
%TO.N,+3V3*%
%TA.AperFunction,SMDPad,CuDef*%
G36*
G01*
X151768000Y-99838500D02*
X151768000Y-100313500D01*
G75*
G02*
X151530500Y-100551000I-237500J0D01*
G01*
X150930500Y-100551000D01*
G75*
G02*
X150693000Y-100313500I0J237500D01*
G01*
X150693000Y-99838500D01*
G75*
G02*
X150930500Y-99601000I237500J0D01*
G01*
X151530500Y-99601000D01*
G75*
G02*
X151768000Y-99838500I0J-237500D01*
G01*
G37*
%TD.AperFunction*%
%TD*%
D17*
%TO.N,GND*%
X129794000Y-104394000D03*
X126492000Y-104394000D03*
X131572000Y-99822000D03*
X138176000Y-96774000D03*
X144018000Y-93726000D03*
X145034000Y-95250000D03*
X140208000Y-87884000D03*
X125476000Y-91694000D03*
X148590000Y-100838000D03*
X129794000Y-89408000D03*
%TO.N,+3V3*%
X134366000Y-96266000D03*
X123597500Y-91847500D03*
%TO.N,Net-(C2-Pad1)*%
X127254000Y-101346000D03*
%TO.N,Net-(C3-Pad1)*%
X129032000Y-101092000D03*
%TO.N,+5V*%
X134112000Y-89662000D03*
X141986000Y-89916000D03*
%TO.N,Net-(TP1-Pad1)*%
X126238000Y-99822000D03*
X132588000Y-98044000D03*
%TO.N,/xSTBY*%
X130048000Y-91694000D03*
X151384000Y-92456000D03*
%TO.N,/TXCAN*%
X123190000Y-100076000D03*
X147574000Y-99568000D03*
%TO.N,/RXCAN*%
X124460000Y-100330000D03*
X146050000Y-99314000D03*
%TD*%
D18*
%TO.N,GND*%
X131318000Y-98233000D02*
X131318000Y-99568000D01*
X131318000Y-99568000D02*
X131572000Y-99822000D01*
X137260500Y-96774000D02*
X138176000Y-96774000D01*
X143864000Y-93880000D02*
X144018000Y-93726000D01*
X143864000Y-94641500D02*
X143864000Y-93880000D01*
X145125000Y-95341000D02*
X145034000Y-95250000D01*
X146389000Y-95341000D02*
X145125000Y-95341000D01*
X140056000Y-88036000D02*
X140208000Y-87884000D01*
X138698000Y-88036000D02*
X140056000Y-88036000D01*
X125322500Y-91540500D02*
X125476000Y-91694000D01*
X125322500Y-90932000D02*
X125322500Y-91540500D01*
X149352000Y-100076000D02*
X148590000Y-100838000D01*
X149505500Y-100076000D02*
X149352000Y-100076000D01*
X129947500Y-89254500D02*
X129794000Y-89408000D01*
X131064000Y-89254500D02*
X129947500Y-89254500D01*
%TO.N,+3V3*%
X136398000Y-88036000D02*
X136398000Y-94336000D01*
X136398000Y-94336000D02*
X136398000Y-95250000D01*
X135535500Y-96112500D02*
X135535500Y-96774000D01*
X136398000Y-95250000D02*
X135535500Y-96112500D01*
D19*
X123597500Y-93182500D02*
X123698000Y-93283000D01*
D18*
X151339000Y-99967500D02*
X151230500Y-100076000D01*
X151339000Y-97881000D02*
X151339000Y-99967500D01*
X134874000Y-96774000D02*
X134366000Y-96266000D01*
X135535500Y-96774000D02*
X134874000Y-96774000D01*
D19*
X123597500Y-91847500D02*
X123597500Y-93182500D01*
X123597500Y-90932000D02*
X123597500Y-91847500D01*
D18*
X135535500Y-96774000D02*
X135535500Y-97689500D01*
X135535500Y-97689500D02*
X135890000Y-98044000D01*
X140208000Y-98552000D02*
X139700000Y-98044000D01*
X140208000Y-99963000D02*
X140208000Y-98552000D01*
X135890000Y-98044000D02*
X139700000Y-98044000D01*
X150368000Y-102108000D02*
X151230500Y-101245500D01*
X143256000Y-102108000D02*
X150368000Y-102108000D01*
X141111000Y-99963000D02*
X143256000Y-102108000D01*
X151230500Y-101245500D02*
X151230500Y-100076000D01*
X140208000Y-99963000D02*
X141111000Y-99963000D01*
D19*
%TO.N,Net-(C2-Pad1)*%
X128778000Y-98233000D02*
X128778000Y-99822000D01*
X128778000Y-99822000D02*
X127254000Y-101346000D01*
%TO.N,Net-(C3-Pad1)*%
X130048000Y-98233000D02*
X130048000Y-99314000D01*
X130048000Y-99314000D02*
X129032000Y-100330000D01*
X129032000Y-100330000D02*
X129032000Y-101092000D01*
D18*
%TO.N,+5V*%
X119450000Y-88570000D02*
X120472000Y-88570000D01*
X121512500Y-87529500D02*
X131064000Y-87529500D01*
X120472000Y-88570000D02*
X121512500Y-87529500D01*
X133591500Y-87529500D02*
X134098000Y-88036000D01*
X131064000Y-87529500D02*
X133591500Y-87529500D01*
X144108500Y-96611000D02*
X143864000Y-96366500D01*
X146389000Y-96611000D02*
X144108500Y-96611000D01*
X134098000Y-89648000D02*
X134112000Y-89662000D01*
X134098000Y-88036000D02*
X134098000Y-89648000D01*
X143864000Y-96366500D02*
X142848500Y-96366500D01*
X142848500Y-96366500D02*
X142240000Y-95758000D01*
X142240000Y-95758000D02*
X142240000Y-90170000D01*
X142240000Y-90170000D02*
X141986000Y-89916000D01*
D19*
%TO.N,Net-(D1-Pad1)*%
X140170500Y-101750500D02*
X140208000Y-101713000D01*
X138176000Y-101750500D02*
X140170500Y-101750500D01*
%TO.N,/nINT*%
X119450000Y-101270000D02*
X119456000Y-101270000D01*
X119456000Y-101270000D02*
X121920000Y-98806000D01*
X121920000Y-98806000D02*
X121920000Y-97028000D01*
X121920000Y-97028000D02*
X122428000Y-96520000D01*
X122428000Y-96520000D02*
X127000000Y-96520000D01*
X127508000Y-97028000D02*
X127508000Y-98233000D01*
X127000000Y-96520000D02*
X127508000Y-97028000D01*
%TO.N,/SCK*%
X119450000Y-98730000D02*
X119450000Y-98482000D01*
X119450000Y-98482000D02*
X122174000Y-95758000D01*
X122174000Y-95758000D02*
X127508000Y-95758000D01*
X128778000Y-94488000D02*
X128778000Y-93283000D01*
X127508000Y-95758000D02*
X128778000Y-94488000D01*
%TO.N,/nCS*%
X119450000Y-96190000D02*
X120472000Y-96190000D01*
X120472000Y-96190000D02*
X121666000Y-94996000D01*
X121666000Y-94996000D02*
X124206000Y-94996000D01*
X124968000Y-94234000D02*
X124968000Y-93283000D01*
X124206000Y-94996000D02*
X124968000Y-94234000D01*
%TO.N,/SDO*%
X126492000Y-90170000D02*
X126492000Y-93029000D01*
X122428000Y-89916000D02*
X126238000Y-89916000D01*
X126492000Y-93029000D02*
X126238000Y-93283000D01*
X126238000Y-89916000D02*
X126492000Y-90170000D01*
X121666000Y-90678000D02*
X122428000Y-89916000D01*
X121666000Y-92456000D02*
X121666000Y-90678000D01*
X120472000Y-93650000D02*
X121666000Y-92456000D01*
X119450000Y-93650000D02*
X120472000Y-93650000D01*
%TO.N,/SDI*%
X127508000Y-89662000D02*
X127508000Y-93283000D01*
X127000000Y-89154000D02*
X127508000Y-89662000D01*
X122174000Y-89154000D02*
X127000000Y-89154000D01*
X120218000Y-91110000D02*
X122174000Y-89154000D01*
X119450000Y-91110000D02*
X120218000Y-91110000D01*
D18*
%TO.N,/CANH*%
X154341000Y-95341000D02*
X154940000Y-94742000D01*
X151339000Y-95341000D02*
X154341000Y-95341000D01*
%TO.N,/CANL*%
X154269000Y-96611000D02*
X154940000Y-97282000D01*
X151339000Y-96611000D02*
X154269000Y-96611000D01*
D19*
%TO.N,/GPIO1*%
X138176000Y-99822000D02*
X135128000Y-99822000D01*
X135128000Y-99822000D02*
X133858000Y-98552000D01*
X133858000Y-98552000D02*
X133858000Y-97028000D01*
X131318000Y-94488000D02*
X131318000Y-93283000D01*
X133858000Y-97028000D02*
X131318000Y-94488000D01*
%TO.N,Net-(TP1-Pad1)*%
X126238000Y-98233000D02*
X126238000Y-99822000D01*
X134620000Y-101346000D02*
X135890000Y-101346000D01*
X132588000Y-99314000D02*
X134620000Y-101346000D01*
X132588000Y-98044000D02*
X132588000Y-99314000D01*
%TO.N,/xSTBY*%
X130048000Y-93283000D02*
X130048000Y-91694000D01*
X151339000Y-92501000D02*
X151339000Y-94071000D01*
X151384000Y-92456000D02*
X151339000Y-92501000D01*
%TO.N,/TXCAN*%
X123698000Y-98233000D02*
X123698000Y-99568000D01*
X123698000Y-99568000D02*
X123190000Y-100076000D01*
X147574000Y-99568000D02*
X148082000Y-99060000D01*
X148082000Y-99060000D02*
X148082000Y-94996000D01*
X147157000Y-94071000D02*
X146389000Y-94071000D01*
X148082000Y-94996000D02*
X147157000Y-94071000D01*
%TO.N,/RXCAN*%
X124968000Y-98233000D02*
X124968000Y-99314000D01*
X124460000Y-99822000D02*
X124460000Y-100330000D01*
X124968000Y-99314000D02*
X124460000Y-99822000D01*
X146389000Y-98975000D02*
X146389000Y-97881000D01*
X146050000Y-99314000D02*
X146389000Y-98975000D01*
%TD*%
M02*
