%TF.GenerationSoftware,KiCad,Pcbnew,(5.1.8)-1*%
%TF.CreationDate,2021-01-01T08:41:17+08:00*%
%TF.ProjectId,MCP2517FD-Breakout,4d435032-3531-4374-9644-2d427265616b,rev?*%
%TF.SameCoordinates,Original*%
%TF.FileFunction,Paste,Bot*%
%TF.FilePolarity,Positive*%
%FSLAX46Y46*%
G04 Gerber Fmt 4.6, Leading zero omitted, Abs format (unit mm)*
G04 Created by KiCad (PCBNEW (5.1.8)-1) date 2021-01-01 08:41:17*
%MOMM*%
%LPD*%
G01*
G04 APERTURE LIST*
%TA.AperFunction,Profile*%
%ADD10C,0.050000*%
%TD*%
G04 APERTURE END LIST*
D10*
X157480000Y-86360000D02*
X157480000Y-107950000D01*
X119888000Y-86360000D02*
X116840000Y-86360000D01*
X157480000Y-86360000D02*
X119888000Y-86360000D01*
X126746000Y-107950000D02*
X157480000Y-107950000D01*
X116840000Y-107950000D02*
X126746000Y-107950000D01*
X116840000Y-86360000D02*
X116840000Y-107950000D01*
%TO.C,R2*%
G36*
G01*
X152416500Y-96437000D02*
X152891500Y-96437000D01*
G75*
G02*
X153129000Y-96674500I0J-237500D01*
G01*
X153129000Y-97174500D01*
G75*
G02*
X152891500Y-97412000I-237500J0D01*
G01*
X152416500Y-97412000D01*
G75*
G02*
X152179000Y-97174500I0J237500D01*
G01*
X152179000Y-96674500D01*
G75*
G02*
X152416500Y-96437000I237500J0D01*
G01*
G37*
G36*
G01*
X152416500Y-94612000D02*
X152891500Y-94612000D01*
G75*
G02*
X153129000Y-94849500I0J-237500D01*
G01*
X153129000Y-95349500D01*
G75*
G02*
X152891500Y-95587000I-237500J0D01*
G01*
X152416500Y-95587000D01*
G75*
G02*
X152179000Y-95349500I0J237500D01*
G01*
X152179000Y-94849500D01*
G75*
G02*
X152416500Y-94612000I237500J0D01*
G01*
G37*
%TD*%
%TO.C,C3*%
G36*
G01*
X128540500Y-103449000D02*
X129015500Y-103449000D01*
G75*
G02*
X129253000Y-103686500I0J-237500D01*
G01*
X129253000Y-104286500D01*
G75*
G02*
X129015500Y-104524000I-237500J0D01*
G01*
X128540500Y-104524000D01*
G75*
G02*
X128303000Y-104286500I0J237500D01*
G01*
X128303000Y-103686500D01*
G75*
G02*
X128540500Y-103449000I237500J0D01*
G01*
G37*
G36*
G01*
X128540500Y-101724000D02*
X129015500Y-101724000D01*
G75*
G02*
X129253000Y-101961500I0J-237500D01*
G01*
X129253000Y-102561500D01*
G75*
G02*
X129015500Y-102799000I-237500J0D01*
G01*
X128540500Y-102799000D01*
G75*
G02*
X128303000Y-102561500I0J237500D01*
G01*
X128303000Y-101961500D01*
G75*
G02*
X128540500Y-101724000I237500J0D01*
G01*
G37*
%TD*%
%TO.C,C2*%
G36*
G01*
X127016500Y-103449000D02*
X127491500Y-103449000D01*
G75*
G02*
X127729000Y-103686500I0J-237500D01*
G01*
X127729000Y-104286500D01*
G75*
G02*
X127491500Y-104524000I-237500J0D01*
G01*
X127016500Y-104524000D01*
G75*
G02*
X126779000Y-104286500I0J237500D01*
G01*
X126779000Y-103686500D01*
G75*
G02*
X127016500Y-103449000I237500J0D01*
G01*
G37*
G36*
G01*
X127016500Y-101724000D02*
X127491500Y-101724000D01*
G75*
G02*
X127729000Y-101961500I0J-237500D01*
G01*
X127729000Y-102561500D01*
G75*
G02*
X127491500Y-102799000I-237500J0D01*
G01*
X127016500Y-102799000D01*
G75*
G02*
X126779000Y-102561500I0J237500D01*
G01*
X126779000Y-101961500D01*
G75*
G02*
X127016500Y-101724000I237500J0D01*
G01*
G37*
%TD*%
M02*
