%TF.GenerationSoftware,KiCad,Pcbnew,(5.1.8)-1*%
%TF.CreationDate,2021-01-01T08:41:17+08:00*%
%TF.ProjectId,MCP2517FD-Breakout,4d435032-3531-4374-9644-2d427265616b,rev?*%
%TF.SameCoordinates,Original*%
%TF.FileFunction,Copper,L2,Bot*%
%TF.FilePolarity,Positive*%
%FSLAX46Y46*%
G04 Gerber Fmt 4.6, Leading zero omitted, Abs format (unit mm)*
G04 Created by KiCad (PCBNEW (5.1.8)-1) date 2021-01-01 08:41:17*
%MOMM*%
%LPD*%
G01*
G04 APERTURE LIST*
%TA.AperFunction,Profile*%
%ADD10C,0.050000*%
%TD*%
%TA.AperFunction,ComponentPad*%
%ADD11C,1.500000*%
%TD*%
%TA.AperFunction,ComponentPad*%
%ADD12O,1.700000X1.700000*%
%TD*%
%TA.AperFunction,ComponentPad*%
%ADD13R,1.700000X1.700000*%
%TD*%
%TA.AperFunction,ViaPad*%
%ADD14C,0.800000*%
%TD*%
%TA.AperFunction,Conductor*%
%ADD15C,0.508000*%
%TD*%
%TA.AperFunction,Conductor*%
%ADD16C,0.254000*%
%TD*%
%TA.AperFunction,Conductor*%
%ADD17C,0.250000*%
%TD*%
%TA.AperFunction,Conductor*%
%ADD18C,0.127000*%
%TD*%
%TA.AperFunction,Conductor*%
%ADD19C,0.100000*%
%TD*%
G04 APERTURE END LIST*
D10*
X157480000Y-86360000D02*
X157480000Y-107950000D01*
X119888000Y-86360000D02*
X116840000Y-86360000D01*
X157480000Y-86360000D02*
X119888000Y-86360000D01*
X126746000Y-107950000D02*
X157480000Y-107950000D01*
X116840000Y-107950000D02*
X126746000Y-107950000D01*
X116840000Y-86360000D02*
X116840000Y-107950000D01*
D11*
%TO.P,Y1,2*%
%TO.N,Net-(C3-Pad1)*%
X130610000Y-102870000D03*
%TO.P,Y1,1*%
%TO.N,Net-(C2-Pad1)*%
X125730000Y-102870000D03*
%TD*%
%TO.P,R2,2*%
%TO.N,/CANL*%
%TA.AperFunction,SMDPad,CuDef*%
G36*
G01*
X152416500Y-96437000D02*
X152891500Y-96437000D01*
G75*
G02*
X153129000Y-96674500I0J-237500D01*
G01*
X153129000Y-97174500D01*
G75*
G02*
X152891500Y-97412000I-237500J0D01*
G01*
X152416500Y-97412000D01*
G75*
G02*
X152179000Y-97174500I0J237500D01*
G01*
X152179000Y-96674500D01*
G75*
G02*
X152416500Y-96437000I237500J0D01*
G01*
G37*
%TD.AperFunction*%
%TO.P,R2,1*%
%TO.N,/CANH*%
%TA.AperFunction,SMDPad,CuDef*%
G36*
G01*
X152416500Y-94612000D02*
X152891500Y-94612000D01*
G75*
G02*
X153129000Y-94849500I0J-237500D01*
G01*
X153129000Y-95349500D01*
G75*
G02*
X152891500Y-95587000I-237500J0D01*
G01*
X152416500Y-95587000D01*
G75*
G02*
X152179000Y-95349500I0J237500D01*
G01*
X152179000Y-94849500D01*
G75*
G02*
X152416500Y-94612000I237500J0D01*
G01*
G37*
%TD.AperFunction*%
%TD*%
D12*
%TO.P,J2,4*%
%TO.N,N/C*%
X154940000Y-92202000D03*
%TO.P,J2,3*%
%TO.N,/CANH*%
X154940000Y-94742000D03*
%TO.P,J2,2*%
%TO.N,/CANL*%
X154940000Y-97282000D03*
D13*
%TO.P,J2,1*%
%TO.N,GND*%
X154940000Y-99822000D03*
%TD*%
D12*
%TO.P,J1,7*%
%TO.N,GND*%
X119450000Y-103810000D03*
%TO.P,J1,6*%
%TO.N,/nINT*%
X119450000Y-101270000D03*
%TO.P,J1,5*%
%TO.N,/SCK*%
X119450000Y-98730000D03*
%TO.P,J1,4*%
%TO.N,/nCS*%
X119450000Y-96190000D03*
%TO.P,J1,3*%
%TO.N,/SDO*%
X119450000Y-93650000D03*
%TO.P,J1,2*%
%TO.N,/SDI*%
X119450000Y-91110000D03*
D13*
%TO.P,J1,1*%
%TO.N,+5V*%
X119450000Y-88570000D03*
%TD*%
%TO.P,C3,2*%
%TO.N,GND*%
%TA.AperFunction,SMDPad,CuDef*%
G36*
G01*
X128540500Y-103449000D02*
X129015500Y-103449000D01*
G75*
G02*
X129253000Y-103686500I0J-237500D01*
G01*
X129253000Y-104286500D01*
G75*
G02*
X129015500Y-104524000I-237500J0D01*
G01*
X128540500Y-104524000D01*
G75*
G02*
X128303000Y-104286500I0J237500D01*
G01*
X128303000Y-103686500D01*
G75*
G02*
X128540500Y-103449000I237500J0D01*
G01*
G37*
%TD.AperFunction*%
%TO.P,C3,1*%
%TO.N,Net-(C3-Pad1)*%
%TA.AperFunction,SMDPad,CuDef*%
G36*
G01*
X128540500Y-101724000D02*
X129015500Y-101724000D01*
G75*
G02*
X129253000Y-101961500I0J-237500D01*
G01*
X129253000Y-102561500D01*
G75*
G02*
X129015500Y-102799000I-237500J0D01*
G01*
X128540500Y-102799000D01*
G75*
G02*
X128303000Y-102561500I0J237500D01*
G01*
X128303000Y-101961500D01*
G75*
G02*
X128540500Y-101724000I237500J0D01*
G01*
G37*
%TD.AperFunction*%
%TD*%
%TO.P,C2,2*%
%TO.N,GND*%
%TA.AperFunction,SMDPad,CuDef*%
G36*
G01*
X127016500Y-103449000D02*
X127491500Y-103449000D01*
G75*
G02*
X127729000Y-103686500I0J-237500D01*
G01*
X127729000Y-104286500D01*
G75*
G02*
X127491500Y-104524000I-237500J0D01*
G01*
X127016500Y-104524000D01*
G75*
G02*
X126779000Y-104286500I0J237500D01*
G01*
X126779000Y-103686500D01*
G75*
G02*
X127016500Y-103449000I237500J0D01*
G01*
G37*
%TD.AperFunction*%
%TO.P,C2,1*%
%TO.N,Net-(C2-Pad1)*%
%TA.AperFunction,SMDPad,CuDef*%
G36*
G01*
X127016500Y-101724000D02*
X127491500Y-101724000D01*
G75*
G02*
X127729000Y-101961500I0J-237500D01*
G01*
X127729000Y-102561500D01*
G75*
G02*
X127491500Y-102799000I-237500J0D01*
G01*
X127016500Y-102799000D01*
G75*
G02*
X126779000Y-102561500I0J237500D01*
G01*
X126779000Y-101961500D01*
G75*
G02*
X127016500Y-101724000I237500J0D01*
G01*
G37*
%TD.AperFunction*%
%TD*%
D14*
%TO.N,GND*%
X126111000Y-106045000D03*
X131826000Y-106045000D03*
X135890000Y-106045000D03*
X142240000Y-106045000D03*
X145415000Y-104902000D03*
X123825000Y-105537000D03*
X123444000Y-101727000D03*
X129794000Y-104394000D03*
X126492000Y-104394000D03*
X131572000Y-99822000D03*
X138176000Y-96774000D03*
X144018000Y-93726000D03*
X145034000Y-95250000D03*
X140208000Y-87884000D03*
X125476000Y-91694000D03*
X148590000Y-100838000D03*
X129794000Y-89408000D03*
X136779000Y-104267000D03*
X142240000Y-104140000D03*
X144780000Y-100330000D03*
X148590000Y-105410000D03*
X146685000Y-100584000D03*
%TO.N,+3V3*%
X134366000Y-96266000D03*
X123597500Y-91847500D03*
%TO.N,Net-(C2-Pad1)*%
X127254000Y-101346000D03*
%TO.N,Net-(C3-Pad1)*%
X129032000Y-101092000D03*
%TO.N,+5V*%
X134112000Y-89662000D03*
X141986000Y-89916000D03*
%TO.N,Net-(TP1-Pad1)*%
X126238000Y-99822000D03*
X132588000Y-98044000D03*
%TO.N,/xSTBY*%
X130048000Y-91694000D03*
X151384000Y-92456000D03*
%TO.N,/TXCAN*%
X147574000Y-99568000D03*
X122682000Y-100584000D03*
%TO.N,/RXCAN*%
X124460000Y-100330000D03*
X146050000Y-99314000D03*
%TD*%
D15*
%TO.N,GND*%
X128778000Y-103986500D02*
X129386500Y-103986500D01*
X129386500Y-103986500D02*
X129794000Y-104394000D01*
X126899500Y-103986500D02*
X126492000Y-104394000D01*
X127254000Y-103986500D02*
X126899500Y-103986500D01*
%TO.N,+3V3*%
X134366000Y-96266000D02*
X131318000Y-93218000D01*
X124968000Y-93218000D02*
X123597500Y-91847500D01*
X131318000Y-93218000D02*
X124968000Y-93218000D01*
D16*
%TO.N,Net-(C2-Pad1)*%
X127254000Y-101346000D02*
X127254000Y-102261500D01*
X126645500Y-102870000D02*
X127254000Y-102261500D01*
X125730000Y-102870000D02*
X126645500Y-102870000D01*
%TO.N,Net-(C3-Pad1)*%
X129032000Y-102007500D02*
X128778000Y-102261500D01*
X129032000Y-101092000D02*
X129032000Y-102007500D01*
X130001500Y-102261500D02*
X130610000Y-102870000D01*
X128778000Y-102261500D02*
X130001500Y-102261500D01*
D15*
%TO.N,+5V*%
X134112000Y-89662000D02*
X134366000Y-89916000D01*
X134366000Y-89916000D02*
X141986000Y-89916000D01*
%TO.N,/CANH*%
X154582500Y-95099500D02*
X154940000Y-94742000D01*
X152654000Y-95099500D02*
X154582500Y-95099500D01*
%TO.N,/CANL*%
X154582500Y-96924500D02*
X154940000Y-97282000D01*
X152654000Y-96924500D02*
X154582500Y-96924500D01*
D16*
%TO.N,Net-(TP1-Pad1)*%
X126238000Y-98552000D02*
X126238000Y-99822000D01*
X126746000Y-98044000D02*
X126238000Y-98552000D01*
X132588000Y-98044000D02*
X126746000Y-98044000D01*
%TO.N,/xSTBY*%
X150622000Y-91694000D02*
X151384000Y-92456000D01*
X130048000Y-91694000D02*
X150622000Y-91694000D01*
%TO.N,/TXCAN*%
X147574000Y-104140000D02*
X147574000Y-99568000D01*
X144907000Y-106807000D02*
X147574000Y-104140000D01*
X122682000Y-105918000D02*
X123571000Y-106807000D01*
X122682000Y-100584000D02*
X122682000Y-105918000D01*
X123571000Y-106807000D02*
X144907000Y-106807000D01*
%TO.N,/RXCAN*%
X124460000Y-100330000D02*
X124206000Y-100584000D01*
D17*
X125095000Y-105283000D02*
X124206000Y-104394000D01*
D16*
X124206000Y-100584000D02*
X124206000Y-104394000D01*
X145796000Y-99568000D02*
X146050000Y-99314000D01*
X145796000Y-103124000D02*
X145796000Y-99568000D01*
X143637000Y-105283000D02*
X145796000Y-103124000D01*
X125095000Y-105283000D02*
X143637000Y-105283000D01*
%TD*%
D18*
%TO.N,GND*%
X157137501Y-107607500D02*
X117182500Y-107607500D01*
X117182500Y-104055085D01*
X118308514Y-104055085D01*
X118364724Y-104240396D01*
X118469543Y-104443853D01*
X118612041Y-104622951D01*
X118786741Y-104770808D01*
X118986930Y-104881742D01*
X119204914Y-104951489D01*
X119386500Y-104896400D01*
X119386500Y-103873500D01*
X119513500Y-103873500D01*
X119513500Y-104896400D01*
X119695086Y-104951489D01*
X119913070Y-104881742D01*
X120113259Y-104770808D01*
X120287959Y-104622951D01*
X120430457Y-104443853D01*
X120535276Y-104240396D01*
X120591486Y-104055085D01*
X120536271Y-103873500D01*
X119513500Y-103873500D01*
X119386500Y-103873500D01*
X118363729Y-103873500D01*
X118308514Y-104055085D01*
X117182500Y-104055085D01*
X117182500Y-103564915D01*
X118308514Y-103564915D01*
X118363729Y-103746500D01*
X119386500Y-103746500D01*
X119386500Y-102723600D01*
X119513500Y-102723600D01*
X119513500Y-103746500D01*
X120536271Y-103746500D01*
X120591486Y-103564915D01*
X120535276Y-103379604D01*
X120430457Y-103176147D01*
X120287959Y-102997049D01*
X120113259Y-102849192D01*
X119913070Y-102738258D01*
X119695086Y-102668511D01*
X119513500Y-102723600D01*
X119386500Y-102723600D01*
X119204914Y-102668511D01*
X118986930Y-102738258D01*
X118786741Y-102849192D01*
X118612041Y-102997049D01*
X118469543Y-103176147D01*
X118364724Y-103379604D01*
X118308514Y-103564915D01*
X117182500Y-103564915D01*
X117182500Y-101155011D01*
X118282500Y-101155011D01*
X118282500Y-101384989D01*
X118327366Y-101610547D01*
X118415375Y-101823019D01*
X118543144Y-102014238D01*
X118705762Y-102176856D01*
X118896981Y-102304625D01*
X119109453Y-102392634D01*
X119335011Y-102437500D01*
X119564989Y-102437500D01*
X119790547Y-102392634D01*
X120003019Y-102304625D01*
X120194238Y-102176856D01*
X120356856Y-102014238D01*
X120484625Y-101823019D01*
X120572634Y-101610547D01*
X120617500Y-101384989D01*
X120617500Y-101155011D01*
X120572634Y-100929453D01*
X120484625Y-100716981D01*
X120356856Y-100525762D01*
X120344426Y-100513332D01*
X121964500Y-100513332D01*
X121964500Y-100654668D01*
X121992073Y-100793287D01*
X122046159Y-100923864D01*
X122124681Y-101041380D01*
X122224620Y-101141319D01*
X122237500Y-101149925D01*
X122237501Y-105896170D01*
X122235351Y-105918000D01*
X122243933Y-106005137D01*
X122269349Y-106088925D01*
X122310624Y-106166145D01*
X122352255Y-106216872D01*
X122352259Y-106216876D01*
X122366172Y-106233829D01*
X122383125Y-106247742D01*
X123241258Y-107105876D01*
X123255171Y-107122829D01*
X123272124Y-107136742D01*
X123272127Y-107136745D01*
X123322854Y-107178376D01*
X123400074Y-107219651D01*
X123483863Y-107245068D01*
X123549170Y-107251500D01*
X123549180Y-107251500D01*
X123571000Y-107253649D01*
X123592820Y-107251500D01*
X144885180Y-107251500D01*
X144907000Y-107253649D01*
X144928820Y-107251500D01*
X144928830Y-107251500D01*
X144994137Y-107245068D01*
X145077926Y-107219651D01*
X145155145Y-107178376D01*
X145222829Y-107122829D01*
X145236747Y-107105870D01*
X147872877Y-104469741D01*
X147889829Y-104455829D01*
X147903742Y-104438876D01*
X147903745Y-104438873D01*
X147945376Y-104388146D01*
X147986651Y-104310926D01*
X147987765Y-104307255D01*
X148012068Y-104227137D01*
X148018500Y-104161830D01*
X148018500Y-104161820D01*
X148020649Y-104140000D01*
X148018500Y-104118180D01*
X148018500Y-100672000D01*
X153770964Y-100672000D01*
X153777094Y-100734241D01*
X153795249Y-100794090D01*
X153824731Y-100849247D01*
X153864407Y-100897593D01*
X153912753Y-100937269D01*
X153967910Y-100966751D01*
X154027759Y-100984906D01*
X154090000Y-100991036D01*
X154797125Y-100989500D01*
X154876500Y-100910125D01*
X154876500Y-99885500D01*
X155003500Y-99885500D01*
X155003500Y-100910125D01*
X155082875Y-100989500D01*
X155790000Y-100991036D01*
X155852241Y-100984906D01*
X155912090Y-100966751D01*
X155967247Y-100937269D01*
X156015593Y-100897593D01*
X156055269Y-100849247D01*
X156084751Y-100794090D01*
X156102906Y-100734241D01*
X156109036Y-100672000D01*
X156107500Y-99964875D01*
X156028125Y-99885500D01*
X155003500Y-99885500D01*
X154876500Y-99885500D01*
X153851875Y-99885500D01*
X153772500Y-99964875D01*
X153770964Y-100672000D01*
X148018500Y-100672000D01*
X148018500Y-100133925D01*
X148031380Y-100125319D01*
X148131319Y-100025380D01*
X148209841Y-99907864D01*
X148263927Y-99777287D01*
X148291500Y-99638668D01*
X148291500Y-99497332D01*
X148263927Y-99358713D01*
X148209841Y-99228136D01*
X148131319Y-99110620D01*
X148031380Y-99010681D01*
X147973491Y-98972000D01*
X153770964Y-98972000D01*
X153772500Y-99679125D01*
X153851875Y-99758500D01*
X154876500Y-99758500D01*
X154876500Y-98733875D01*
X155003500Y-98733875D01*
X155003500Y-99758500D01*
X156028125Y-99758500D01*
X156107500Y-99679125D01*
X156109036Y-98972000D01*
X156102906Y-98909759D01*
X156084751Y-98849910D01*
X156055269Y-98794753D01*
X156015593Y-98746407D01*
X155967247Y-98706731D01*
X155912090Y-98677249D01*
X155852241Y-98659094D01*
X155790000Y-98652964D01*
X155082875Y-98654500D01*
X155003500Y-98733875D01*
X154876500Y-98733875D01*
X154797125Y-98654500D01*
X154090000Y-98652964D01*
X154027759Y-98659094D01*
X153967910Y-98677249D01*
X153912753Y-98706731D01*
X153864407Y-98746407D01*
X153824731Y-98794753D01*
X153795249Y-98849910D01*
X153777094Y-98909759D01*
X153770964Y-98972000D01*
X147973491Y-98972000D01*
X147913864Y-98932159D01*
X147783287Y-98878073D01*
X147644668Y-98850500D01*
X147503332Y-98850500D01*
X147364713Y-98878073D01*
X147234136Y-98932159D01*
X147116620Y-99010681D01*
X147016681Y-99110620D01*
X146938159Y-99228136D01*
X146884073Y-99358713D01*
X146856500Y-99497332D01*
X146856500Y-99638668D01*
X146884073Y-99777287D01*
X146938159Y-99907864D01*
X147016681Y-100025380D01*
X147116620Y-100125319D01*
X147129501Y-100133926D01*
X147129500Y-103955882D01*
X144722883Y-106362500D01*
X123755118Y-106362500D01*
X123126500Y-105733883D01*
X123126500Y-101149925D01*
X123139380Y-101141319D01*
X123239319Y-101041380D01*
X123317841Y-100923864D01*
X123371927Y-100793287D01*
X123399500Y-100654668D01*
X123399500Y-100513332D01*
X123371927Y-100374713D01*
X123324136Y-100259332D01*
X123742500Y-100259332D01*
X123742500Y-100400668D01*
X123765847Y-100518039D01*
X123761500Y-100562171D01*
X123761500Y-100562180D01*
X123759351Y-100584000D01*
X123761500Y-100605820D01*
X123761501Y-104392559D01*
X123761359Y-104394000D01*
X123761501Y-104395441D01*
X123761501Y-104415830D01*
X123767933Y-104481137D01*
X123793350Y-104564926D01*
X123834625Y-104642145D01*
X123890172Y-104709829D01*
X123922896Y-104736685D01*
X124752315Y-105566105D01*
X124779171Y-105598829D01*
X124846855Y-105654376D01*
X124924074Y-105695651D01*
X125007863Y-105721068D01*
X125073170Y-105727500D01*
X125093569Y-105727500D01*
X125095000Y-105727641D01*
X125096431Y-105727500D01*
X143615180Y-105727500D01*
X143637000Y-105729649D01*
X143658820Y-105727500D01*
X143658830Y-105727500D01*
X143724137Y-105721068D01*
X143807926Y-105695651D01*
X143885145Y-105654376D01*
X143952829Y-105598829D01*
X143966747Y-105581870D01*
X146094877Y-103453741D01*
X146111829Y-103439829D01*
X146125742Y-103422876D01*
X146125745Y-103422873D01*
X146156793Y-103385040D01*
X146167376Y-103372145D01*
X146208651Y-103294926D01*
X146234068Y-103211137D01*
X146240500Y-103145830D01*
X146240500Y-103145821D01*
X146242649Y-103124001D01*
X146240500Y-103102181D01*
X146240500Y-100007664D01*
X146259287Y-100003927D01*
X146389864Y-99949841D01*
X146507380Y-99871319D01*
X146607319Y-99771380D01*
X146685841Y-99653864D01*
X146739927Y-99523287D01*
X146767500Y-99384668D01*
X146767500Y-99243332D01*
X146739927Y-99104713D01*
X146685841Y-98974136D01*
X146607319Y-98856620D01*
X146507380Y-98756681D01*
X146389864Y-98678159D01*
X146259287Y-98624073D01*
X146120668Y-98596500D01*
X145979332Y-98596500D01*
X145840713Y-98624073D01*
X145710136Y-98678159D01*
X145592620Y-98756681D01*
X145492681Y-98856620D01*
X145414159Y-98974136D01*
X145360073Y-99104713D01*
X145332500Y-99243332D01*
X145332500Y-99384668D01*
X145355847Y-99502042D01*
X145349351Y-99568000D01*
X145351501Y-99589830D01*
X145351500Y-102939882D01*
X143452883Y-104838500D01*
X129299056Y-104838500D01*
X129315241Y-104836906D01*
X129375090Y-104818751D01*
X129430247Y-104789269D01*
X129478593Y-104749593D01*
X129518269Y-104701247D01*
X129547751Y-104646090D01*
X129565906Y-104586241D01*
X129572036Y-104524000D01*
X129570500Y-104129375D01*
X129491125Y-104050000D01*
X128841500Y-104050000D01*
X128841500Y-104070000D01*
X128714500Y-104070000D01*
X128714500Y-104050000D01*
X128064875Y-104050000D01*
X128016000Y-104098875D01*
X127967125Y-104050000D01*
X127317500Y-104050000D01*
X127317500Y-104070000D01*
X127190500Y-104070000D01*
X127190500Y-104050000D01*
X126540875Y-104050000D01*
X126461500Y-104129375D01*
X126459964Y-104524000D01*
X126466094Y-104586241D01*
X126484249Y-104646090D01*
X126513731Y-104701247D01*
X126553407Y-104749593D01*
X126601753Y-104789269D01*
X126656910Y-104818751D01*
X126716759Y-104836906D01*
X126732944Y-104838500D01*
X125276290Y-104838500D01*
X124650500Y-104212711D01*
X124650500Y-102764860D01*
X124662500Y-102764860D01*
X124662500Y-102975140D01*
X124703524Y-103181378D01*
X124783994Y-103375651D01*
X124900819Y-103550491D01*
X125049509Y-103699181D01*
X125224349Y-103816006D01*
X125418622Y-103896476D01*
X125624860Y-103937500D01*
X125835140Y-103937500D01*
X126041378Y-103896476D01*
X126235651Y-103816006D01*
X126410491Y-103699181D01*
X126460742Y-103648930D01*
X126461500Y-103843625D01*
X126540875Y-103923000D01*
X127190500Y-103923000D01*
X127190500Y-103210875D01*
X127317500Y-103210875D01*
X127317500Y-103923000D01*
X127967125Y-103923000D01*
X128016000Y-103874125D01*
X128064875Y-103923000D01*
X128714500Y-103923000D01*
X128714500Y-103210875D01*
X128841500Y-103210875D01*
X128841500Y-103923000D01*
X129491125Y-103923000D01*
X129570500Y-103843625D01*
X129572036Y-103449000D01*
X129565906Y-103386759D01*
X129547751Y-103326910D01*
X129518269Y-103271753D01*
X129478593Y-103223407D01*
X129430247Y-103183731D01*
X129375090Y-103154249D01*
X129315241Y-103136094D01*
X129253000Y-103129964D01*
X128920875Y-103131500D01*
X128841500Y-103210875D01*
X128714500Y-103210875D01*
X128635125Y-103131500D01*
X128303000Y-103129964D01*
X128240759Y-103136094D01*
X128180910Y-103154249D01*
X128125753Y-103183731D01*
X128077407Y-103223407D01*
X128037731Y-103271753D01*
X128016000Y-103312409D01*
X127994269Y-103271753D01*
X127954593Y-103223407D01*
X127906247Y-103183731D01*
X127851090Y-103154249D01*
X127791241Y-103136094D01*
X127729000Y-103129964D01*
X127396875Y-103131500D01*
X127317500Y-103210875D01*
X127190500Y-103210875D01*
X127111125Y-103131500D01*
X127013071Y-103131047D01*
X127026081Y-103118036D01*
X127491500Y-103118036D01*
X127600075Y-103107342D01*
X127704477Y-103075672D01*
X127800695Y-103024243D01*
X127885030Y-102955030D01*
X127954243Y-102870695D01*
X128005672Y-102774477D01*
X128016000Y-102740430D01*
X128026328Y-102774477D01*
X128077757Y-102870695D01*
X128146970Y-102955030D01*
X128231305Y-103024243D01*
X128327523Y-103075672D01*
X128431925Y-103107342D01*
X128540500Y-103118036D01*
X129015500Y-103118036D01*
X129124075Y-103107342D01*
X129228477Y-103075672D01*
X129324695Y-103024243D01*
X129409030Y-102955030D01*
X129478243Y-102870695D01*
X129529672Y-102774477D01*
X129550444Y-102706000D01*
X129554208Y-102706000D01*
X129542500Y-102764860D01*
X129542500Y-102975140D01*
X129583524Y-103181378D01*
X129663994Y-103375651D01*
X129780819Y-103550491D01*
X129929509Y-103699181D01*
X130104349Y-103816006D01*
X130298622Y-103896476D01*
X130504860Y-103937500D01*
X130715140Y-103937500D01*
X130921378Y-103896476D01*
X131115651Y-103816006D01*
X131290491Y-103699181D01*
X131439181Y-103550491D01*
X131556006Y-103375651D01*
X131636476Y-103181378D01*
X131677500Y-102975140D01*
X131677500Y-102764860D01*
X131636476Y-102558622D01*
X131556006Y-102364349D01*
X131439181Y-102189509D01*
X131290491Y-102040819D01*
X131115651Y-101923994D01*
X130921378Y-101843524D01*
X130715140Y-101802500D01*
X130504860Y-101802500D01*
X130298622Y-101843524D01*
X130221910Y-101875299D01*
X130172426Y-101848849D01*
X130088637Y-101823432D01*
X130023330Y-101817000D01*
X130023320Y-101817000D01*
X130001500Y-101814851D01*
X129979680Y-101817000D01*
X129550444Y-101817000D01*
X129529672Y-101748523D01*
X129479998Y-101655588D01*
X129489380Y-101649319D01*
X129589319Y-101549380D01*
X129667841Y-101431864D01*
X129721927Y-101301287D01*
X129749500Y-101162668D01*
X129749500Y-101021332D01*
X129721927Y-100882713D01*
X129667841Y-100752136D01*
X129589319Y-100634620D01*
X129489380Y-100534681D01*
X129371864Y-100456159D01*
X129241287Y-100402073D01*
X129102668Y-100374500D01*
X128961332Y-100374500D01*
X128822713Y-100402073D01*
X128692136Y-100456159D01*
X128574620Y-100534681D01*
X128474681Y-100634620D01*
X128396159Y-100752136D01*
X128342073Y-100882713D01*
X128314500Y-101021332D01*
X128314500Y-101162668D01*
X128342073Y-101301287D01*
X128394188Y-101427105D01*
X128327523Y-101447328D01*
X128231305Y-101498757D01*
X128146970Y-101567970D01*
X128077757Y-101652305D01*
X128026328Y-101748523D01*
X128016000Y-101782570D01*
X128005672Y-101748523D01*
X127954243Y-101652305D01*
X127920681Y-101611410D01*
X127943927Y-101555287D01*
X127971500Y-101416668D01*
X127971500Y-101275332D01*
X127943927Y-101136713D01*
X127889841Y-101006136D01*
X127811319Y-100888620D01*
X127711380Y-100788681D01*
X127593864Y-100710159D01*
X127463287Y-100656073D01*
X127324668Y-100628500D01*
X127183332Y-100628500D01*
X127044713Y-100656073D01*
X126914136Y-100710159D01*
X126796620Y-100788681D01*
X126696681Y-100888620D01*
X126618159Y-101006136D01*
X126564073Y-101136713D01*
X126536500Y-101275332D01*
X126536500Y-101416668D01*
X126564073Y-101555287D01*
X126587319Y-101611410D01*
X126553757Y-101652305D01*
X126502328Y-101748523D01*
X126470658Y-101852925D01*
X126459964Y-101961500D01*
X126459964Y-102090292D01*
X126410491Y-102040819D01*
X126235651Y-101923994D01*
X126041378Y-101843524D01*
X125835140Y-101802500D01*
X125624860Y-101802500D01*
X125418622Y-101843524D01*
X125224349Y-101923994D01*
X125049509Y-102040819D01*
X124900819Y-102189509D01*
X124783994Y-102364349D01*
X124703524Y-102558622D01*
X124662500Y-102764860D01*
X124650500Y-102764860D01*
X124650500Y-101023664D01*
X124669287Y-101019927D01*
X124799864Y-100965841D01*
X124917380Y-100887319D01*
X125017319Y-100787380D01*
X125095841Y-100669864D01*
X125149927Y-100539287D01*
X125177500Y-100400668D01*
X125177500Y-100259332D01*
X125149927Y-100120713D01*
X125095841Y-99990136D01*
X125017319Y-99872620D01*
X124917380Y-99772681D01*
X124885430Y-99751332D01*
X125520500Y-99751332D01*
X125520500Y-99892668D01*
X125548073Y-100031287D01*
X125602159Y-100161864D01*
X125680681Y-100279380D01*
X125780620Y-100379319D01*
X125898136Y-100457841D01*
X126028713Y-100511927D01*
X126167332Y-100539500D01*
X126308668Y-100539500D01*
X126447287Y-100511927D01*
X126577864Y-100457841D01*
X126695380Y-100379319D01*
X126795319Y-100279380D01*
X126873841Y-100161864D01*
X126927927Y-100031287D01*
X126955500Y-99892668D01*
X126955500Y-99751332D01*
X126927927Y-99612713D01*
X126873841Y-99482136D01*
X126795319Y-99364620D01*
X126695380Y-99264681D01*
X126682500Y-99256075D01*
X126682500Y-98736117D01*
X126930118Y-98488500D01*
X132022075Y-98488500D01*
X132030681Y-98501380D01*
X132130620Y-98601319D01*
X132248136Y-98679841D01*
X132378713Y-98733927D01*
X132517332Y-98761500D01*
X132658668Y-98761500D01*
X132797287Y-98733927D01*
X132927864Y-98679841D01*
X133045380Y-98601319D01*
X133145319Y-98501380D01*
X133223841Y-98383864D01*
X133277927Y-98253287D01*
X133305500Y-98114668D01*
X133305500Y-97973332D01*
X133277927Y-97834713D01*
X133223841Y-97704136D01*
X133145319Y-97586620D01*
X133045380Y-97486681D01*
X132927864Y-97408159D01*
X132797287Y-97354073D01*
X132658668Y-97326500D01*
X132517332Y-97326500D01*
X132378713Y-97354073D01*
X132248136Y-97408159D01*
X132130620Y-97486681D01*
X132030681Y-97586620D01*
X132022075Y-97599500D01*
X126767819Y-97599500D01*
X126745999Y-97597351D01*
X126724179Y-97599500D01*
X126724170Y-97599500D01*
X126658863Y-97605932D01*
X126575074Y-97631349D01*
X126502840Y-97669960D01*
X126497853Y-97672625D01*
X126447126Y-97714256D01*
X126430171Y-97728171D01*
X126416258Y-97745124D01*
X125939129Y-98222254D01*
X125922171Y-98236171D01*
X125904185Y-98258087D01*
X125866624Y-98303855D01*
X125845768Y-98342874D01*
X125825349Y-98381075D01*
X125799932Y-98464864D01*
X125793500Y-98530171D01*
X125793500Y-98530180D01*
X125791351Y-98552000D01*
X125793500Y-98573820D01*
X125793501Y-99256074D01*
X125780620Y-99264681D01*
X125680681Y-99364620D01*
X125602159Y-99482136D01*
X125548073Y-99612713D01*
X125520500Y-99751332D01*
X124885430Y-99751332D01*
X124799864Y-99694159D01*
X124669287Y-99640073D01*
X124530668Y-99612500D01*
X124389332Y-99612500D01*
X124250713Y-99640073D01*
X124120136Y-99694159D01*
X124002620Y-99772681D01*
X123902681Y-99872620D01*
X123824159Y-99990136D01*
X123770073Y-100120713D01*
X123742500Y-100259332D01*
X123324136Y-100259332D01*
X123317841Y-100244136D01*
X123239319Y-100126620D01*
X123139380Y-100026681D01*
X123021864Y-99948159D01*
X122891287Y-99894073D01*
X122752668Y-99866500D01*
X122611332Y-99866500D01*
X122472713Y-99894073D01*
X122342136Y-99948159D01*
X122224620Y-100026681D01*
X122124681Y-100126620D01*
X122046159Y-100244136D01*
X121992073Y-100374713D01*
X121964500Y-100513332D01*
X120344426Y-100513332D01*
X120194238Y-100363144D01*
X120003019Y-100235375D01*
X119790547Y-100147366D01*
X119564989Y-100102500D01*
X119335011Y-100102500D01*
X119109453Y-100147366D01*
X118896981Y-100235375D01*
X118705762Y-100363144D01*
X118543144Y-100525762D01*
X118415375Y-100716981D01*
X118327366Y-100929453D01*
X118282500Y-101155011D01*
X117182500Y-101155011D01*
X117182500Y-98615011D01*
X118282500Y-98615011D01*
X118282500Y-98844989D01*
X118327366Y-99070547D01*
X118415375Y-99283019D01*
X118543144Y-99474238D01*
X118705762Y-99636856D01*
X118896981Y-99764625D01*
X119109453Y-99852634D01*
X119335011Y-99897500D01*
X119564989Y-99897500D01*
X119790547Y-99852634D01*
X120003019Y-99764625D01*
X120194238Y-99636856D01*
X120356856Y-99474238D01*
X120484625Y-99283019D01*
X120572634Y-99070547D01*
X120617500Y-98844989D01*
X120617500Y-98615011D01*
X120572634Y-98389453D01*
X120484625Y-98176981D01*
X120356856Y-97985762D01*
X120194238Y-97823144D01*
X120003019Y-97695375D01*
X119790547Y-97607366D01*
X119564989Y-97562500D01*
X119335011Y-97562500D01*
X119109453Y-97607366D01*
X118896981Y-97695375D01*
X118705762Y-97823144D01*
X118543144Y-97985762D01*
X118415375Y-98176981D01*
X118327366Y-98389453D01*
X118282500Y-98615011D01*
X117182500Y-98615011D01*
X117182500Y-96075011D01*
X118282500Y-96075011D01*
X118282500Y-96304989D01*
X118327366Y-96530547D01*
X118415375Y-96743019D01*
X118543144Y-96934238D01*
X118705762Y-97096856D01*
X118896981Y-97224625D01*
X119109453Y-97312634D01*
X119335011Y-97357500D01*
X119564989Y-97357500D01*
X119790547Y-97312634D01*
X120003019Y-97224625D01*
X120194238Y-97096856D01*
X120356856Y-96934238D01*
X120484625Y-96743019D01*
X120572634Y-96530547D01*
X120617500Y-96304989D01*
X120617500Y-96075011D01*
X120572634Y-95849453D01*
X120484625Y-95636981D01*
X120356856Y-95445762D01*
X120194238Y-95283144D01*
X120003019Y-95155375D01*
X119790547Y-95067366D01*
X119564989Y-95022500D01*
X119335011Y-95022500D01*
X119109453Y-95067366D01*
X118896981Y-95155375D01*
X118705762Y-95283144D01*
X118543144Y-95445762D01*
X118415375Y-95636981D01*
X118327366Y-95849453D01*
X118282500Y-96075011D01*
X117182500Y-96075011D01*
X117182500Y-93535011D01*
X118282500Y-93535011D01*
X118282500Y-93764989D01*
X118327366Y-93990547D01*
X118415375Y-94203019D01*
X118543144Y-94394238D01*
X118705762Y-94556856D01*
X118896981Y-94684625D01*
X119109453Y-94772634D01*
X119335011Y-94817500D01*
X119564989Y-94817500D01*
X119790547Y-94772634D01*
X120003019Y-94684625D01*
X120194238Y-94556856D01*
X120356856Y-94394238D01*
X120484625Y-94203019D01*
X120572634Y-93990547D01*
X120617500Y-93764989D01*
X120617500Y-93535011D01*
X120572634Y-93309453D01*
X120484625Y-93096981D01*
X120356856Y-92905762D01*
X120194238Y-92743144D01*
X120003019Y-92615375D01*
X119790547Y-92527366D01*
X119564989Y-92482500D01*
X119335011Y-92482500D01*
X119109453Y-92527366D01*
X118896981Y-92615375D01*
X118705762Y-92743144D01*
X118543144Y-92905762D01*
X118415375Y-93096981D01*
X118327366Y-93309453D01*
X118282500Y-93535011D01*
X117182500Y-93535011D01*
X117182500Y-90995011D01*
X118282500Y-90995011D01*
X118282500Y-91224989D01*
X118327366Y-91450547D01*
X118415375Y-91663019D01*
X118543144Y-91854238D01*
X118705762Y-92016856D01*
X118896981Y-92144625D01*
X119109453Y-92232634D01*
X119335011Y-92277500D01*
X119564989Y-92277500D01*
X119790547Y-92232634D01*
X120003019Y-92144625D01*
X120194238Y-92016856D01*
X120356856Y-91854238D01*
X120408577Y-91776832D01*
X122880000Y-91776832D01*
X122880000Y-91918168D01*
X122907573Y-92056787D01*
X122961659Y-92187364D01*
X123040181Y-92304880D01*
X123140120Y-92404819D01*
X123257636Y-92483341D01*
X123388213Y-92537427D01*
X123501798Y-92560020D01*
X124544034Y-93602257D01*
X124561933Y-93624067D01*
X124648955Y-93695484D01*
X124748238Y-93748552D01*
X124855966Y-93781231D01*
X124968000Y-93792265D01*
X124996074Y-93789500D01*
X131081278Y-93789500D01*
X133653480Y-96361703D01*
X133676073Y-96475287D01*
X133730159Y-96605864D01*
X133808681Y-96723380D01*
X133908620Y-96823319D01*
X134026136Y-96901841D01*
X134156713Y-96955927D01*
X134295332Y-96983500D01*
X134436668Y-96983500D01*
X134575287Y-96955927D01*
X134705864Y-96901841D01*
X134823380Y-96823319D01*
X134923319Y-96723380D01*
X134955979Y-96674500D01*
X151859964Y-96674500D01*
X151859964Y-97174500D01*
X151870658Y-97283075D01*
X151902328Y-97387477D01*
X151953757Y-97483695D01*
X152022970Y-97568030D01*
X152107305Y-97637243D01*
X152203523Y-97688672D01*
X152307925Y-97720342D01*
X152416500Y-97731036D01*
X152891500Y-97731036D01*
X153000075Y-97720342D01*
X153104477Y-97688672D01*
X153200695Y-97637243D01*
X153285030Y-97568030D01*
X153344144Y-97496000D01*
X153792194Y-97496000D01*
X153817366Y-97622547D01*
X153905375Y-97835019D01*
X154033144Y-98026238D01*
X154195762Y-98188856D01*
X154386981Y-98316625D01*
X154599453Y-98404634D01*
X154825011Y-98449500D01*
X155054989Y-98449500D01*
X155280547Y-98404634D01*
X155493019Y-98316625D01*
X155684238Y-98188856D01*
X155846856Y-98026238D01*
X155974625Y-97835019D01*
X156062634Y-97622547D01*
X156107500Y-97396989D01*
X156107500Y-97167011D01*
X156062634Y-96941453D01*
X155974625Y-96728981D01*
X155846856Y-96537762D01*
X155684238Y-96375144D01*
X155493019Y-96247375D01*
X155280547Y-96159366D01*
X155054989Y-96114500D01*
X154825011Y-96114500D01*
X154599453Y-96159366D01*
X154386981Y-96247375D01*
X154228903Y-96353000D01*
X153344144Y-96353000D01*
X153285030Y-96280970D01*
X153200695Y-96211757D01*
X153104477Y-96160328D01*
X153000075Y-96128658D01*
X152891500Y-96117964D01*
X152416500Y-96117964D01*
X152307925Y-96128658D01*
X152203523Y-96160328D01*
X152107305Y-96211757D01*
X152022970Y-96280970D01*
X151953757Y-96365305D01*
X151902328Y-96461523D01*
X151870658Y-96565925D01*
X151859964Y-96674500D01*
X134955979Y-96674500D01*
X135001841Y-96605864D01*
X135055927Y-96475287D01*
X135083500Y-96336668D01*
X135083500Y-96195332D01*
X135055927Y-96056713D01*
X135001841Y-95926136D01*
X134923319Y-95808620D01*
X134823380Y-95708681D01*
X134705864Y-95630159D01*
X134575287Y-95576073D01*
X134461703Y-95553480D01*
X133757723Y-94849500D01*
X151859964Y-94849500D01*
X151859964Y-95349500D01*
X151870658Y-95458075D01*
X151902328Y-95562477D01*
X151953757Y-95658695D01*
X152022970Y-95743030D01*
X152107305Y-95812243D01*
X152203523Y-95863672D01*
X152307925Y-95895342D01*
X152416500Y-95906036D01*
X152891500Y-95906036D01*
X153000075Y-95895342D01*
X153104477Y-95863672D01*
X153200695Y-95812243D01*
X153285030Y-95743030D01*
X153344144Y-95671000D01*
X154228903Y-95671000D01*
X154386981Y-95776625D01*
X154599453Y-95864634D01*
X154825011Y-95909500D01*
X155054989Y-95909500D01*
X155280547Y-95864634D01*
X155493019Y-95776625D01*
X155684238Y-95648856D01*
X155846856Y-95486238D01*
X155974625Y-95295019D01*
X156062634Y-95082547D01*
X156107500Y-94856989D01*
X156107500Y-94627011D01*
X156062634Y-94401453D01*
X155974625Y-94188981D01*
X155846856Y-93997762D01*
X155684238Y-93835144D01*
X155493019Y-93707375D01*
X155280547Y-93619366D01*
X155054989Y-93574500D01*
X154825011Y-93574500D01*
X154599453Y-93619366D01*
X154386981Y-93707375D01*
X154195762Y-93835144D01*
X154033144Y-93997762D01*
X153905375Y-94188981D01*
X153817366Y-94401453D01*
X153792194Y-94528000D01*
X153344144Y-94528000D01*
X153285030Y-94455970D01*
X153200695Y-94386757D01*
X153104477Y-94335328D01*
X153000075Y-94303658D01*
X152891500Y-94292964D01*
X152416500Y-94292964D01*
X152307925Y-94303658D01*
X152203523Y-94335328D01*
X152107305Y-94386757D01*
X152022970Y-94455970D01*
X151953757Y-94540305D01*
X151902328Y-94636523D01*
X151870658Y-94740925D01*
X151859964Y-94849500D01*
X133757723Y-94849500D01*
X131741970Y-92833748D01*
X131724067Y-92811933D01*
X131637045Y-92740516D01*
X131537762Y-92687448D01*
X131430034Y-92654769D01*
X131346074Y-92646500D01*
X131318000Y-92643735D01*
X131289926Y-92646500D01*
X125204723Y-92646500D01*
X124310020Y-91751798D01*
X124287427Y-91638213D01*
X124281264Y-91623332D01*
X129330500Y-91623332D01*
X129330500Y-91764668D01*
X129358073Y-91903287D01*
X129412159Y-92033864D01*
X129490681Y-92151380D01*
X129590620Y-92251319D01*
X129708136Y-92329841D01*
X129838713Y-92383927D01*
X129977332Y-92411500D01*
X130118668Y-92411500D01*
X130257287Y-92383927D01*
X130387864Y-92329841D01*
X130505380Y-92251319D01*
X130605319Y-92151380D01*
X130613925Y-92138500D01*
X150437883Y-92138500D01*
X150669522Y-92370139D01*
X150666500Y-92385332D01*
X150666500Y-92526668D01*
X150694073Y-92665287D01*
X150748159Y-92795864D01*
X150826681Y-92913380D01*
X150926620Y-93013319D01*
X151044136Y-93091841D01*
X151174713Y-93145927D01*
X151313332Y-93173500D01*
X151454668Y-93173500D01*
X151593287Y-93145927D01*
X151723864Y-93091841D01*
X151841380Y-93013319D01*
X151941319Y-92913380D01*
X152019841Y-92795864D01*
X152073927Y-92665287D01*
X152101500Y-92526668D01*
X152101500Y-92385332D01*
X152073927Y-92246713D01*
X152019841Y-92116136D01*
X152000381Y-92087011D01*
X153772500Y-92087011D01*
X153772500Y-92316989D01*
X153817366Y-92542547D01*
X153905375Y-92755019D01*
X154033144Y-92946238D01*
X154195762Y-93108856D01*
X154386981Y-93236625D01*
X154599453Y-93324634D01*
X154825011Y-93369500D01*
X155054989Y-93369500D01*
X155280547Y-93324634D01*
X155493019Y-93236625D01*
X155684238Y-93108856D01*
X155846856Y-92946238D01*
X155974625Y-92755019D01*
X156062634Y-92542547D01*
X156107500Y-92316989D01*
X156107500Y-92087011D01*
X156062634Y-91861453D01*
X155974625Y-91648981D01*
X155846856Y-91457762D01*
X155684238Y-91295144D01*
X155493019Y-91167375D01*
X155280547Y-91079366D01*
X155054989Y-91034500D01*
X154825011Y-91034500D01*
X154599453Y-91079366D01*
X154386981Y-91167375D01*
X154195762Y-91295144D01*
X154033144Y-91457762D01*
X153905375Y-91648981D01*
X153817366Y-91861453D01*
X153772500Y-92087011D01*
X152000381Y-92087011D01*
X151941319Y-91998620D01*
X151841380Y-91898681D01*
X151723864Y-91820159D01*
X151593287Y-91766073D01*
X151454668Y-91738500D01*
X151313332Y-91738500D01*
X151298139Y-91741522D01*
X150951746Y-91395129D01*
X150937829Y-91378171D01*
X150870145Y-91322624D01*
X150792926Y-91281349D01*
X150709137Y-91255932D01*
X150643830Y-91249500D01*
X150643820Y-91249500D01*
X150622000Y-91247351D01*
X150600180Y-91249500D01*
X130613925Y-91249500D01*
X130605319Y-91236620D01*
X130505380Y-91136681D01*
X130387864Y-91058159D01*
X130257287Y-91004073D01*
X130118668Y-90976500D01*
X129977332Y-90976500D01*
X129838713Y-91004073D01*
X129708136Y-91058159D01*
X129590620Y-91136681D01*
X129490681Y-91236620D01*
X129412159Y-91354136D01*
X129358073Y-91484713D01*
X129330500Y-91623332D01*
X124281264Y-91623332D01*
X124233341Y-91507636D01*
X124154819Y-91390120D01*
X124054880Y-91290181D01*
X123937364Y-91211659D01*
X123806787Y-91157573D01*
X123668168Y-91130000D01*
X123526832Y-91130000D01*
X123388213Y-91157573D01*
X123257636Y-91211659D01*
X123140120Y-91290181D01*
X123040181Y-91390120D01*
X122961659Y-91507636D01*
X122907573Y-91638213D01*
X122880000Y-91776832D01*
X120408577Y-91776832D01*
X120484625Y-91663019D01*
X120572634Y-91450547D01*
X120617500Y-91224989D01*
X120617500Y-90995011D01*
X120572634Y-90769453D01*
X120484625Y-90556981D01*
X120356856Y-90365762D01*
X120194238Y-90203144D01*
X120003019Y-90075375D01*
X119790547Y-89987366D01*
X119564989Y-89942500D01*
X119335011Y-89942500D01*
X119109453Y-89987366D01*
X118896981Y-90075375D01*
X118705762Y-90203144D01*
X118543144Y-90365762D01*
X118415375Y-90556981D01*
X118327366Y-90769453D01*
X118282500Y-90995011D01*
X117182500Y-90995011D01*
X117182500Y-87720000D01*
X118280964Y-87720000D01*
X118280964Y-89420000D01*
X118287094Y-89482241D01*
X118305249Y-89542090D01*
X118334731Y-89597247D01*
X118374407Y-89645593D01*
X118422753Y-89685269D01*
X118477910Y-89714751D01*
X118537759Y-89732906D01*
X118600000Y-89739036D01*
X120300000Y-89739036D01*
X120362241Y-89732906D01*
X120422090Y-89714751D01*
X120477247Y-89685269D01*
X120525593Y-89645593D01*
X120565269Y-89597247D01*
X120568430Y-89591332D01*
X133394500Y-89591332D01*
X133394500Y-89732668D01*
X133422073Y-89871287D01*
X133476159Y-90001864D01*
X133554681Y-90119380D01*
X133654620Y-90219319D01*
X133772136Y-90297841D01*
X133902713Y-90351927D01*
X134026263Y-90376503D01*
X134046955Y-90393484D01*
X134146238Y-90446552D01*
X134253966Y-90479231D01*
X134337926Y-90487500D01*
X134337927Y-90487500D01*
X134365999Y-90490265D01*
X134394071Y-90487500D01*
X141549843Y-90487500D01*
X141646136Y-90551841D01*
X141776713Y-90605927D01*
X141915332Y-90633500D01*
X142056668Y-90633500D01*
X142195287Y-90605927D01*
X142325864Y-90551841D01*
X142443380Y-90473319D01*
X142543319Y-90373380D01*
X142621841Y-90255864D01*
X142675927Y-90125287D01*
X142703500Y-89986668D01*
X142703500Y-89845332D01*
X142675927Y-89706713D01*
X142621841Y-89576136D01*
X142543319Y-89458620D01*
X142443380Y-89358681D01*
X142325864Y-89280159D01*
X142195287Y-89226073D01*
X142056668Y-89198500D01*
X141915332Y-89198500D01*
X141776713Y-89226073D01*
X141646136Y-89280159D01*
X141549843Y-89344500D01*
X134757104Y-89344500D01*
X134747841Y-89322136D01*
X134669319Y-89204620D01*
X134569380Y-89104681D01*
X134451864Y-89026159D01*
X134321287Y-88972073D01*
X134182668Y-88944500D01*
X134041332Y-88944500D01*
X133902713Y-88972073D01*
X133772136Y-89026159D01*
X133654620Y-89104681D01*
X133554681Y-89204620D01*
X133476159Y-89322136D01*
X133422073Y-89452713D01*
X133394500Y-89591332D01*
X120568430Y-89591332D01*
X120594751Y-89542090D01*
X120612906Y-89482241D01*
X120619036Y-89420000D01*
X120619036Y-87720000D01*
X120612906Y-87657759D01*
X120594751Y-87597910D01*
X120565269Y-87542753D01*
X120525593Y-87494407D01*
X120477247Y-87454731D01*
X120422090Y-87425249D01*
X120362241Y-87407094D01*
X120300000Y-87400964D01*
X118600000Y-87400964D01*
X118537759Y-87407094D01*
X118477910Y-87425249D01*
X118422753Y-87454731D01*
X118374407Y-87494407D01*
X118334731Y-87542753D01*
X118305249Y-87597910D01*
X118287094Y-87657759D01*
X118280964Y-87720000D01*
X117182500Y-87720000D01*
X117182500Y-86702500D01*
X157137500Y-86702500D01*
X157137501Y-107607500D01*
%TA.AperFunction,Conductor*%
D19*
G36*
X157137501Y-107607500D02*
G01*
X117182500Y-107607500D01*
X117182500Y-104055085D01*
X118308514Y-104055085D01*
X118364724Y-104240396D01*
X118469543Y-104443853D01*
X118612041Y-104622951D01*
X118786741Y-104770808D01*
X118986930Y-104881742D01*
X119204914Y-104951489D01*
X119386500Y-104896400D01*
X119386500Y-103873500D01*
X119513500Y-103873500D01*
X119513500Y-104896400D01*
X119695086Y-104951489D01*
X119913070Y-104881742D01*
X120113259Y-104770808D01*
X120287959Y-104622951D01*
X120430457Y-104443853D01*
X120535276Y-104240396D01*
X120591486Y-104055085D01*
X120536271Y-103873500D01*
X119513500Y-103873500D01*
X119386500Y-103873500D01*
X118363729Y-103873500D01*
X118308514Y-104055085D01*
X117182500Y-104055085D01*
X117182500Y-103564915D01*
X118308514Y-103564915D01*
X118363729Y-103746500D01*
X119386500Y-103746500D01*
X119386500Y-102723600D01*
X119513500Y-102723600D01*
X119513500Y-103746500D01*
X120536271Y-103746500D01*
X120591486Y-103564915D01*
X120535276Y-103379604D01*
X120430457Y-103176147D01*
X120287959Y-102997049D01*
X120113259Y-102849192D01*
X119913070Y-102738258D01*
X119695086Y-102668511D01*
X119513500Y-102723600D01*
X119386500Y-102723600D01*
X119204914Y-102668511D01*
X118986930Y-102738258D01*
X118786741Y-102849192D01*
X118612041Y-102997049D01*
X118469543Y-103176147D01*
X118364724Y-103379604D01*
X118308514Y-103564915D01*
X117182500Y-103564915D01*
X117182500Y-101155011D01*
X118282500Y-101155011D01*
X118282500Y-101384989D01*
X118327366Y-101610547D01*
X118415375Y-101823019D01*
X118543144Y-102014238D01*
X118705762Y-102176856D01*
X118896981Y-102304625D01*
X119109453Y-102392634D01*
X119335011Y-102437500D01*
X119564989Y-102437500D01*
X119790547Y-102392634D01*
X120003019Y-102304625D01*
X120194238Y-102176856D01*
X120356856Y-102014238D01*
X120484625Y-101823019D01*
X120572634Y-101610547D01*
X120617500Y-101384989D01*
X120617500Y-101155011D01*
X120572634Y-100929453D01*
X120484625Y-100716981D01*
X120356856Y-100525762D01*
X120344426Y-100513332D01*
X121964500Y-100513332D01*
X121964500Y-100654668D01*
X121992073Y-100793287D01*
X122046159Y-100923864D01*
X122124681Y-101041380D01*
X122224620Y-101141319D01*
X122237500Y-101149925D01*
X122237501Y-105896170D01*
X122235351Y-105918000D01*
X122243933Y-106005137D01*
X122269349Y-106088925D01*
X122310624Y-106166145D01*
X122352255Y-106216872D01*
X122352259Y-106216876D01*
X122366172Y-106233829D01*
X122383125Y-106247742D01*
X123241258Y-107105876D01*
X123255171Y-107122829D01*
X123272124Y-107136742D01*
X123272127Y-107136745D01*
X123322854Y-107178376D01*
X123400074Y-107219651D01*
X123483863Y-107245068D01*
X123549170Y-107251500D01*
X123549180Y-107251500D01*
X123571000Y-107253649D01*
X123592820Y-107251500D01*
X144885180Y-107251500D01*
X144907000Y-107253649D01*
X144928820Y-107251500D01*
X144928830Y-107251500D01*
X144994137Y-107245068D01*
X145077926Y-107219651D01*
X145155145Y-107178376D01*
X145222829Y-107122829D01*
X145236747Y-107105870D01*
X147872877Y-104469741D01*
X147889829Y-104455829D01*
X147903742Y-104438876D01*
X147903745Y-104438873D01*
X147945376Y-104388146D01*
X147986651Y-104310926D01*
X147987765Y-104307255D01*
X148012068Y-104227137D01*
X148018500Y-104161830D01*
X148018500Y-104161820D01*
X148020649Y-104140000D01*
X148018500Y-104118180D01*
X148018500Y-100672000D01*
X153770964Y-100672000D01*
X153777094Y-100734241D01*
X153795249Y-100794090D01*
X153824731Y-100849247D01*
X153864407Y-100897593D01*
X153912753Y-100937269D01*
X153967910Y-100966751D01*
X154027759Y-100984906D01*
X154090000Y-100991036D01*
X154797125Y-100989500D01*
X154876500Y-100910125D01*
X154876500Y-99885500D01*
X155003500Y-99885500D01*
X155003500Y-100910125D01*
X155082875Y-100989500D01*
X155790000Y-100991036D01*
X155852241Y-100984906D01*
X155912090Y-100966751D01*
X155967247Y-100937269D01*
X156015593Y-100897593D01*
X156055269Y-100849247D01*
X156084751Y-100794090D01*
X156102906Y-100734241D01*
X156109036Y-100672000D01*
X156107500Y-99964875D01*
X156028125Y-99885500D01*
X155003500Y-99885500D01*
X154876500Y-99885500D01*
X153851875Y-99885500D01*
X153772500Y-99964875D01*
X153770964Y-100672000D01*
X148018500Y-100672000D01*
X148018500Y-100133925D01*
X148031380Y-100125319D01*
X148131319Y-100025380D01*
X148209841Y-99907864D01*
X148263927Y-99777287D01*
X148291500Y-99638668D01*
X148291500Y-99497332D01*
X148263927Y-99358713D01*
X148209841Y-99228136D01*
X148131319Y-99110620D01*
X148031380Y-99010681D01*
X147973491Y-98972000D01*
X153770964Y-98972000D01*
X153772500Y-99679125D01*
X153851875Y-99758500D01*
X154876500Y-99758500D01*
X154876500Y-98733875D01*
X155003500Y-98733875D01*
X155003500Y-99758500D01*
X156028125Y-99758500D01*
X156107500Y-99679125D01*
X156109036Y-98972000D01*
X156102906Y-98909759D01*
X156084751Y-98849910D01*
X156055269Y-98794753D01*
X156015593Y-98746407D01*
X155967247Y-98706731D01*
X155912090Y-98677249D01*
X155852241Y-98659094D01*
X155790000Y-98652964D01*
X155082875Y-98654500D01*
X155003500Y-98733875D01*
X154876500Y-98733875D01*
X154797125Y-98654500D01*
X154090000Y-98652964D01*
X154027759Y-98659094D01*
X153967910Y-98677249D01*
X153912753Y-98706731D01*
X153864407Y-98746407D01*
X153824731Y-98794753D01*
X153795249Y-98849910D01*
X153777094Y-98909759D01*
X153770964Y-98972000D01*
X147973491Y-98972000D01*
X147913864Y-98932159D01*
X147783287Y-98878073D01*
X147644668Y-98850500D01*
X147503332Y-98850500D01*
X147364713Y-98878073D01*
X147234136Y-98932159D01*
X147116620Y-99010681D01*
X147016681Y-99110620D01*
X146938159Y-99228136D01*
X146884073Y-99358713D01*
X146856500Y-99497332D01*
X146856500Y-99638668D01*
X146884073Y-99777287D01*
X146938159Y-99907864D01*
X147016681Y-100025380D01*
X147116620Y-100125319D01*
X147129501Y-100133926D01*
X147129500Y-103955882D01*
X144722883Y-106362500D01*
X123755118Y-106362500D01*
X123126500Y-105733883D01*
X123126500Y-101149925D01*
X123139380Y-101141319D01*
X123239319Y-101041380D01*
X123317841Y-100923864D01*
X123371927Y-100793287D01*
X123399500Y-100654668D01*
X123399500Y-100513332D01*
X123371927Y-100374713D01*
X123324136Y-100259332D01*
X123742500Y-100259332D01*
X123742500Y-100400668D01*
X123765847Y-100518039D01*
X123761500Y-100562171D01*
X123761500Y-100562180D01*
X123759351Y-100584000D01*
X123761500Y-100605820D01*
X123761501Y-104392559D01*
X123761359Y-104394000D01*
X123761501Y-104395441D01*
X123761501Y-104415830D01*
X123767933Y-104481137D01*
X123793350Y-104564926D01*
X123834625Y-104642145D01*
X123890172Y-104709829D01*
X123922896Y-104736685D01*
X124752315Y-105566105D01*
X124779171Y-105598829D01*
X124846855Y-105654376D01*
X124924074Y-105695651D01*
X125007863Y-105721068D01*
X125073170Y-105727500D01*
X125093569Y-105727500D01*
X125095000Y-105727641D01*
X125096431Y-105727500D01*
X143615180Y-105727500D01*
X143637000Y-105729649D01*
X143658820Y-105727500D01*
X143658830Y-105727500D01*
X143724137Y-105721068D01*
X143807926Y-105695651D01*
X143885145Y-105654376D01*
X143952829Y-105598829D01*
X143966747Y-105581870D01*
X146094877Y-103453741D01*
X146111829Y-103439829D01*
X146125742Y-103422876D01*
X146125745Y-103422873D01*
X146156793Y-103385040D01*
X146167376Y-103372145D01*
X146208651Y-103294926D01*
X146234068Y-103211137D01*
X146240500Y-103145830D01*
X146240500Y-103145821D01*
X146242649Y-103124001D01*
X146240500Y-103102181D01*
X146240500Y-100007664D01*
X146259287Y-100003927D01*
X146389864Y-99949841D01*
X146507380Y-99871319D01*
X146607319Y-99771380D01*
X146685841Y-99653864D01*
X146739927Y-99523287D01*
X146767500Y-99384668D01*
X146767500Y-99243332D01*
X146739927Y-99104713D01*
X146685841Y-98974136D01*
X146607319Y-98856620D01*
X146507380Y-98756681D01*
X146389864Y-98678159D01*
X146259287Y-98624073D01*
X146120668Y-98596500D01*
X145979332Y-98596500D01*
X145840713Y-98624073D01*
X145710136Y-98678159D01*
X145592620Y-98756681D01*
X145492681Y-98856620D01*
X145414159Y-98974136D01*
X145360073Y-99104713D01*
X145332500Y-99243332D01*
X145332500Y-99384668D01*
X145355847Y-99502042D01*
X145349351Y-99568000D01*
X145351501Y-99589830D01*
X145351500Y-102939882D01*
X143452883Y-104838500D01*
X129299056Y-104838500D01*
X129315241Y-104836906D01*
X129375090Y-104818751D01*
X129430247Y-104789269D01*
X129478593Y-104749593D01*
X129518269Y-104701247D01*
X129547751Y-104646090D01*
X129565906Y-104586241D01*
X129572036Y-104524000D01*
X129570500Y-104129375D01*
X129491125Y-104050000D01*
X128841500Y-104050000D01*
X128841500Y-104070000D01*
X128714500Y-104070000D01*
X128714500Y-104050000D01*
X128064875Y-104050000D01*
X128016000Y-104098875D01*
X127967125Y-104050000D01*
X127317500Y-104050000D01*
X127317500Y-104070000D01*
X127190500Y-104070000D01*
X127190500Y-104050000D01*
X126540875Y-104050000D01*
X126461500Y-104129375D01*
X126459964Y-104524000D01*
X126466094Y-104586241D01*
X126484249Y-104646090D01*
X126513731Y-104701247D01*
X126553407Y-104749593D01*
X126601753Y-104789269D01*
X126656910Y-104818751D01*
X126716759Y-104836906D01*
X126732944Y-104838500D01*
X125276290Y-104838500D01*
X124650500Y-104212711D01*
X124650500Y-102764860D01*
X124662500Y-102764860D01*
X124662500Y-102975140D01*
X124703524Y-103181378D01*
X124783994Y-103375651D01*
X124900819Y-103550491D01*
X125049509Y-103699181D01*
X125224349Y-103816006D01*
X125418622Y-103896476D01*
X125624860Y-103937500D01*
X125835140Y-103937500D01*
X126041378Y-103896476D01*
X126235651Y-103816006D01*
X126410491Y-103699181D01*
X126460742Y-103648930D01*
X126461500Y-103843625D01*
X126540875Y-103923000D01*
X127190500Y-103923000D01*
X127190500Y-103210875D01*
X127317500Y-103210875D01*
X127317500Y-103923000D01*
X127967125Y-103923000D01*
X128016000Y-103874125D01*
X128064875Y-103923000D01*
X128714500Y-103923000D01*
X128714500Y-103210875D01*
X128841500Y-103210875D01*
X128841500Y-103923000D01*
X129491125Y-103923000D01*
X129570500Y-103843625D01*
X129572036Y-103449000D01*
X129565906Y-103386759D01*
X129547751Y-103326910D01*
X129518269Y-103271753D01*
X129478593Y-103223407D01*
X129430247Y-103183731D01*
X129375090Y-103154249D01*
X129315241Y-103136094D01*
X129253000Y-103129964D01*
X128920875Y-103131500D01*
X128841500Y-103210875D01*
X128714500Y-103210875D01*
X128635125Y-103131500D01*
X128303000Y-103129964D01*
X128240759Y-103136094D01*
X128180910Y-103154249D01*
X128125753Y-103183731D01*
X128077407Y-103223407D01*
X128037731Y-103271753D01*
X128016000Y-103312409D01*
X127994269Y-103271753D01*
X127954593Y-103223407D01*
X127906247Y-103183731D01*
X127851090Y-103154249D01*
X127791241Y-103136094D01*
X127729000Y-103129964D01*
X127396875Y-103131500D01*
X127317500Y-103210875D01*
X127190500Y-103210875D01*
X127111125Y-103131500D01*
X127013071Y-103131047D01*
X127026081Y-103118036D01*
X127491500Y-103118036D01*
X127600075Y-103107342D01*
X127704477Y-103075672D01*
X127800695Y-103024243D01*
X127885030Y-102955030D01*
X127954243Y-102870695D01*
X128005672Y-102774477D01*
X128016000Y-102740430D01*
X128026328Y-102774477D01*
X128077757Y-102870695D01*
X128146970Y-102955030D01*
X128231305Y-103024243D01*
X128327523Y-103075672D01*
X128431925Y-103107342D01*
X128540500Y-103118036D01*
X129015500Y-103118036D01*
X129124075Y-103107342D01*
X129228477Y-103075672D01*
X129324695Y-103024243D01*
X129409030Y-102955030D01*
X129478243Y-102870695D01*
X129529672Y-102774477D01*
X129550444Y-102706000D01*
X129554208Y-102706000D01*
X129542500Y-102764860D01*
X129542500Y-102975140D01*
X129583524Y-103181378D01*
X129663994Y-103375651D01*
X129780819Y-103550491D01*
X129929509Y-103699181D01*
X130104349Y-103816006D01*
X130298622Y-103896476D01*
X130504860Y-103937500D01*
X130715140Y-103937500D01*
X130921378Y-103896476D01*
X131115651Y-103816006D01*
X131290491Y-103699181D01*
X131439181Y-103550491D01*
X131556006Y-103375651D01*
X131636476Y-103181378D01*
X131677500Y-102975140D01*
X131677500Y-102764860D01*
X131636476Y-102558622D01*
X131556006Y-102364349D01*
X131439181Y-102189509D01*
X131290491Y-102040819D01*
X131115651Y-101923994D01*
X130921378Y-101843524D01*
X130715140Y-101802500D01*
X130504860Y-101802500D01*
X130298622Y-101843524D01*
X130221910Y-101875299D01*
X130172426Y-101848849D01*
X130088637Y-101823432D01*
X130023330Y-101817000D01*
X130023320Y-101817000D01*
X130001500Y-101814851D01*
X129979680Y-101817000D01*
X129550444Y-101817000D01*
X129529672Y-101748523D01*
X129479998Y-101655588D01*
X129489380Y-101649319D01*
X129589319Y-101549380D01*
X129667841Y-101431864D01*
X129721927Y-101301287D01*
X129749500Y-101162668D01*
X129749500Y-101021332D01*
X129721927Y-100882713D01*
X129667841Y-100752136D01*
X129589319Y-100634620D01*
X129489380Y-100534681D01*
X129371864Y-100456159D01*
X129241287Y-100402073D01*
X129102668Y-100374500D01*
X128961332Y-100374500D01*
X128822713Y-100402073D01*
X128692136Y-100456159D01*
X128574620Y-100534681D01*
X128474681Y-100634620D01*
X128396159Y-100752136D01*
X128342073Y-100882713D01*
X128314500Y-101021332D01*
X128314500Y-101162668D01*
X128342073Y-101301287D01*
X128394188Y-101427105D01*
X128327523Y-101447328D01*
X128231305Y-101498757D01*
X128146970Y-101567970D01*
X128077757Y-101652305D01*
X128026328Y-101748523D01*
X128016000Y-101782570D01*
X128005672Y-101748523D01*
X127954243Y-101652305D01*
X127920681Y-101611410D01*
X127943927Y-101555287D01*
X127971500Y-101416668D01*
X127971500Y-101275332D01*
X127943927Y-101136713D01*
X127889841Y-101006136D01*
X127811319Y-100888620D01*
X127711380Y-100788681D01*
X127593864Y-100710159D01*
X127463287Y-100656073D01*
X127324668Y-100628500D01*
X127183332Y-100628500D01*
X127044713Y-100656073D01*
X126914136Y-100710159D01*
X126796620Y-100788681D01*
X126696681Y-100888620D01*
X126618159Y-101006136D01*
X126564073Y-101136713D01*
X126536500Y-101275332D01*
X126536500Y-101416668D01*
X126564073Y-101555287D01*
X126587319Y-101611410D01*
X126553757Y-101652305D01*
X126502328Y-101748523D01*
X126470658Y-101852925D01*
X126459964Y-101961500D01*
X126459964Y-102090292D01*
X126410491Y-102040819D01*
X126235651Y-101923994D01*
X126041378Y-101843524D01*
X125835140Y-101802500D01*
X125624860Y-101802500D01*
X125418622Y-101843524D01*
X125224349Y-101923994D01*
X125049509Y-102040819D01*
X124900819Y-102189509D01*
X124783994Y-102364349D01*
X124703524Y-102558622D01*
X124662500Y-102764860D01*
X124650500Y-102764860D01*
X124650500Y-101023664D01*
X124669287Y-101019927D01*
X124799864Y-100965841D01*
X124917380Y-100887319D01*
X125017319Y-100787380D01*
X125095841Y-100669864D01*
X125149927Y-100539287D01*
X125177500Y-100400668D01*
X125177500Y-100259332D01*
X125149927Y-100120713D01*
X125095841Y-99990136D01*
X125017319Y-99872620D01*
X124917380Y-99772681D01*
X124885430Y-99751332D01*
X125520500Y-99751332D01*
X125520500Y-99892668D01*
X125548073Y-100031287D01*
X125602159Y-100161864D01*
X125680681Y-100279380D01*
X125780620Y-100379319D01*
X125898136Y-100457841D01*
X126028713Y-100511927D01*
X126167332Y-100539500D01*
X126308668Y-100539500D01*
X126447287Y-100511927D01*
X126577864Y-100457841D01*
X126695380Y-100379319D01*
X126795319Y-100279380D01*
X126873841Y-100161864D01*
X126927927Y-100031287D01*
X126955500Y-99892668D01*
X126955500Y-99751332D01*
X126927927Y-99612713D01*
X126873841Y-99482136D01*
X126795319Y-99364620D01*
X126695380Y-99264681D01*
X126682500Y-99256075D01*
X126682500Y-98736117D01*
X126930118Y-98488500D01*
X132022075Y-98488500D01*
X132030681Y-98501380D01*
X132130620Y-98601319D01*
X132248136Y-98679841D01*
X132378713Y-98733927D01*
X132517332Y-98761500D01*
X132658668Y-98761500D01*
X132797287Y-98733927D01*
X132927864Y-98679841D01*
X133045380Y-98601319D01*
X133145319Y-98501380D01*
X133223841Y-98383864D01*
X133277927Y-98253287D01*
X133305500Y-98114668D01*
X133305500Y-97973332D01*
X133277927Y-97834713D01*
X133223841Y-97704136D01*
X133145319Y-97586620D01*
X133045380Y-97486681D01*
X132927864Y-97408159D01*
X132797287Y-97354073D01*
X132658668Y-97326500D01*
X132517332Y-97326500D01*
X132378713Y-97354073D01*
X132248136Y-97408159D01*
X132130620Y-97486681D01*
X132030681Y-97586620D01*
X132022075Y-97599500D01*
X126767819Y-97599500D01*
X126745999Y-97597351D01*
X126724179Y-97599500D01*
X126724170Y-97599500D01*
X126658863Y-97605932D01*
X126575074Y-97631349D01*
X126502840Y-97669960D01*
X126497853Y-97672625D01*
X126447126Y-97714256D01*
X126430171Y-97728171D01*
X126416258Y-97745124D01*
X125939129Y-98222254D01*
X125922171Y-98236171D01*
X125904185Y-98258087D01*
X125866624Y-98303855D01*
X125845768Y-98342874D01*
X125825349Y-98381075D01*
X125799932Y-98464864D01*
X125793500Y-98530171D01*
X125793500Y-98530180D01*
X125791351Y-98552000D01*
X125793500Y-98573820D01*
X125793501Y-99256074D01*
X125780620Y-99264681D01*
X125680681Y-99364620D01*
X125602159Y-99482136D01*
X125548073Y-99612713D01*
X125520500Y-99751332D01*
X124885430Y-99751332D01*
X124799864Y-99694159D01*
X124669287Y-99640073D01*
X124530668Y-99612500D01*
X124389332Y-99612500D01*
X124250713Y-99640073D01*
X124120136Y-99694159D01*
X124002620Y-99772681D01*
X123902681Y-99872620D01*
X123824159Y-99990136D01*
X123770073Y-100120713D01*
X123742500Y-100259332D01*
X123324136Y-100259332D01*
X123317841Y-100244136D01*
X123239319Y-100126620D01*
X123139380Y-100026681D01*
X123021864Y-99948159D01*
X122891287Y-99894073D01*
X122752668Y-99866500D01*
X122611332Y-99866500D01*
X122472713Y-99894073D01*
X122342136Y-99948159D01*
X122224620Y-100026681D01*
X122124681Y-100126620D01*
X122046159Y-100244136D01*
X121992073Y-100374713D01*
X121964500Y-100513332D01*
X120344426Y-100513332D01*
X120194238Y-100363144D01*
X120003019Y-100235375D01*
X119790547Y-100147366D01*
X119564989Y-100102500D01*
X119335011Y-100102500D01*
X119109453Y-100147366D01*
X118896981Y-100235375D01*
X118705762Y-100363144D01*
X118543144Y-100525762D01*
X118415375Y-100716981D01*
X118327366Y-100929453D01*
X118282500Y-101155011D01*
X117182500Y-101155011D01*
X117182500Y-98615011D01*
X118282500Y-98615011D01*
X118282500Y-98844989D01*
X118327366Y-99070547D01*
X118415375Y-99283019D01*
X118543144Y-99474238D01*
X118705762Y-99636856D01*
X118896981Y-99764625D01*
X119109453Y-99852634D01*
X119335011Y-99897500D01*
X119564989Y-99897500D01*
X119790547Y-99852634D01*
X120003019Y-99764625D01*
X120194238Y-99636856D01*
X120356856Y-99474238D01*
X120484625Y-99283019D01*
X120572634Y-99070547D01*
X120617500Y-98844989D01*
X120617500Y-98615011D01*
X120572634Y-98389453D01*
X120484625Y-98176981D01*
X120356856Y-97985762D01*
X120194238Y-97823144D01*
X120003019Y-97695375D01*
X119790547Y-97607366D01*
X119564989Y-97562500D01*
X119335011Y-97562500D01*
X119109453Y-97607366D01*
X118896981Y-97695375D01*
X118705762Y-97823144D01*
X118543144Y-97985762D01*
X118415375Y-98176981D01*
X118327366Y-98389453D01*
X118282500Y-98615011D01*
X117182500Y-98615011D01*
X117182500Y-96075011D01*
X118282500Y-96075011D01*
X118282500Y-96304989D01*
X118327366Y-96530547D01*
X118415375Y-96743019D01*
X118543144Y-96934238D01*
X118705762Y-97096856D01*
X118896981Y-97224625D01*
X119109453Y-97312634D01*
X119335011Y-97357500D01*
X119564989Y-97357500D01*
X119790547Y-97312634D01*
X120003019Y-97224625D01*
X120194238Y-97096856D01*
X120356856Y-96934238D01*
X120484625Y-96743019D01*
X120572634Y-96530547D01*
X120617500Y-96304989D01*
X120617500Y-96075011D01*
X120572634Y-95849453D01*
X120484625Y-95636981D01*
X120356856Y-95445762D01*
X120194238Y-95283144D01*
X120003019Y-95155375D01*
X119790547Y-95067366D01*
X119564989Y-95022500D01*
X119335011Y-95022500D01*
X119109453Y-95067366D01*
X118896981Y-95155375D01*
X118705762Y-95283144D01*
X118543144Y-95445762D01*
X118415375Y-95636981D01*
X118327366Y-95849453D01*
X118282500Y-96075011D01*
X117182500Y-96075011D01*
X117182500Y-93535011D01*
X118282500Y-93535011D01*
X118282500Y-93764989D01*
X118327366Y-93990547D01*
X118415375Y-94203019D01*
X118543144Y-94394238D01*
X118705762Y-94556856D01*
X118896981Y-94684625D01*
X119109453Y-94772634D01*
X119335011Y-94817500D01*
X119564989Y-94817500D01*
X119790547Y-94772634D01*
X120003019Y-94684625D01*
X120194238Y-94556856D01*
X120356856Y-94394238D01*
X120484625Y-94203019D01*
X120572634Y-93990547D01*
X120617500Y-93764989D01*
X120617500Y-93535011D01*
X120572634Y-93309453D01*
X120484625Y-93096981D01*
X120356856Y-92905762D01*
X120194238Y-92743144D01*
X120003019Y-92615375D01*
X119790547Y-92527366D01*
X119564989Y-92482500D01*
X119335011Y-92482500D01*
X119109453Y-92527366D01*
X118896981Y-92615375D01*
X118705762Y-92743144D01*
X118543144Y-92905762D01*
X118415375Y-93096981D01*
X118327366Y-93309453D01*
X118282500Y-93535011D01*
X117182500Y-93535011D01*
X117182500Y-90995011D01*
X118282500Y-90995011D01*
X118282500Y-91224989D01*
X118327366Y-91450547D01*
X118415375Y-91663019D01*
X118543144Y-91854238D01*
X118705762Y-92016856D01*
X118896981Y-92144625D01*
X119109453Y-92232634D01*
X119335011Y-92277500D01*
X119564989Y-92277500D01*
X119790547Y-92232634D01*
X120003019Y-92144625D01*
X120194238Y-92016856D01*
X120356856Y-91854238D01*
X120408577Y-91776832D01*
X122880000Y-91776832D01*
X122880000Y-91918168D01*
X122907573Y-92056787D01*
X122961659Y-92187364D01*
X123040181Y-92304880D01*
X123140120Y-92404819D01*
X123257636Y-92483341D01*
X123388213Y-92537427D01*
X123501798Y-92560020D01*
X124544034Y-93602257D01*
X124561933Y-93624067D01*
X124648955Y-93695484D01*
X124748238Y-93748552D01*
X124855966Y-93781231D01*
X124968000Y-93792265D01*
X124996074Y-93789500D01*
X131081278Y-93789500D01*
X133653480Y-96361703D01*
X133676073Y-96475287D01*
X133730159Y-96605864D01*
X133808681Y-96723380D01*
X133908620Y-96823319D01*
X134026136Y-96901841D01*
X134156713Y-96955927D01*
X134295332Y-96983500D01*
X134436668Y-96983500D01*
X134575287Y-96955927D01*
X134705864Y-96901841D01*
X134823380Y-96823319D01*
X134923319Y-96723380D01*
X134955979Y-96674500D01*
X151859964Y-96674500D01*
X151859964Y-97174500D01*
X151870658Y-97283075D01*
X151902328Y-97387477D01*
X151953757Y-97483695D01*
X152022970Y-97568030D01*
X152107305Y-97637243D01*
X152203523Y-97688672D01*
X152307925Y-97720342D01*
X152416500Y-97731036D01*
X152891500Y-97731036D01*
X153000075Y-97720342D01*
X153104477Y-97688672D01*
X153200695Y-97637243D01*
X153285030Y-97568030D01*
X153344144Y-97496000D01*
X153792194Y-97496000D01*
X153817366Y-97622547D01*
X153905375Y-97835019D01*
X154033144Y-98026238D01*
X154195762Y-98188856D01*
X154386981Y-98316625D01*
X154599453Y-98404634D01*
X154825011Y-98449500D01*
X155054989Y-98449500D01*
X155280547Y-98404634D01*
X155493019Y-98316625D01*
X155684238Y-98188856D01*
X155846856Y-98026238D01*
X155974625Y-97835019D01*
X156062634Y-97622547D01*
X156107500Y-97396989D01*
X156107500Y-97167011D01*
X156062634Y-96941453D01*
X155974625Y-96728981D01*
X155846856Y-96537762D01*
X155684238Y-96375144D01*
X155493019Y-96247375D01*
X155280547Y-96159366D01*
X155054989Y-96114500D01*
X154825011Y-96114500D01*
X154599453Y-96159366D01*
X154386981Y-96247375D01*
X154228903Y-96353000D01*
X153344144Y-96353000D01*
X153285030Y-96280970D01*
X153200695Y-96211757D01*
X153104477Y-96160328D01*
X153000075Y-96128658D01*
X152891500Y-96117964D01*
X152416500Y-96117964D01*
X152307925Y-96128658D01*
X152203523Y-96160328D01*
X152107305Y-96211757D01*
X152022970Y-96280970D01*
X151953757Y-96365305D01*
X151902328Y-96461523D01*
X151870658Y-96565925D01*
X151859964Y-96674500D01*
X134955979Y-96674500D01*
X135001841Y-96605864D01*
X135055927Y-96475287D01*
X135083500Y-96336668D01*
X135083500Y-96195332D01*
X135055927Y-96056713D01*
X135001841Y-95926136D01*
X134923319Y-95808620D01*
X134823380Y-95708681D01*
X134705864Y-95630159D01*
X134575287Y-95576073D01*
X134461703Y-95553480D01*
X133757723Y-94849500D01*
X151859964Y-94849500D01*
X151859964Y-95349500D01*
X151870658Y-95458075D01*
X151902328Y-95562477D01*
X151953757Y-95658695D01*
X152022970Y-95743030D01*
X152107305Y-95812243D01*
X152203523Y-95863672D01*
X152307925Y-95895342D01*
X152416500Y-95906036D01*
X152891500Y-95906036D01*
X153000075Y-95895342D01*
X153104477Y-95863672D01*
X153200695Y-95812243D01*
X153285030Y-95743030D01*
X153344144Y-95671000D01*
X154228903Y-95671000D01*
X154386981Y-95776625D01*
X154599453Y-95864634D01*
X154825011Y-95909500D01*
X155054989Y-95909500D01*
X155280547Y-95864634D01*
X155493019Y-95776625D01*
X155684238Y-95648856D01*
X155846856Y-95486238D01*
X155974625Y-95295019D01*
X156062634Y-95082547D01*
X156107500Y-94856989D01*
X156107500Y-94627011D01*
X156062634Y-94401453D01*
X155974625Y-94188981D01*
X155846856Y-93997762D01*
X155684238Y-93835144D01*
X155493019Y-93707375D01*
X155280547Y-93619366D01*
X155054989Y-93574500D01*
X154825011Y-93574500D01*
X154599453Y-93619366D01*
X154386981Y-93707375D01*
X154195762Y-93835144D01*
X154033144Y-93997762D01*
X153905375Y-94188981D01*
X153817366Y-94401453D01*
X153792194Y-94528000D01*
X153344144Y-94528000D01*
X153285030Y-94455970D01*
X153200695Y-94386757D01*
X153104477Y-94335328D01*
X153000075Y-94303658D01*
X152891500Y-94292964D01*
X152416500Y-94292964D01*
X152307925Y-94303658D01*
X152203523Y-94335328D01*
X152107305Y-94386757D01*
X152022970Y-94455970D01*
X151953757Y-94540305D01*
X151902328Y-94636523D01*
X151870658Y-94740925D01*
X151859964Y-94849500D01*
X133757723Y-94849500D01*
X131741970Y-92833748D01*
X131724067Y-92811933D01*
X131637045Y-92740516D01*
X131537762Y-92687448D01*
X131430034Y-92654769D01*
X131346074Y-92646500D01*
X131318000Y-92643735D01*
X131289926Y-92646500D01*
X125204723Y-92646500D01*
X124310020Y-91751798D01*
X124287427Y-91638213D01*
X124281264Y-91623332D01*
X129330500Y-91623332D01*
X129330500Y-91764668D01*
X129358073Y-91903287D01*
X129412159Y-92033864D01*
X129490681Y-92151380D01*
X129590620Y-92251319D01*
X129708136Y-92329841D01*
X129838713Y-92383927D01*
X129977332Y-92411500D01*
X130118668Y-92411500D01*
X130257287Y-92383927D01*
X130387864Y-92329841D01*
X130505380Y-92251319D01*
X130605319Y-92151380D01*
X130613925Y-92138500D01*
X150437883Y-92138500D01*
X150669522Y-92370139D01*
X150666500Y-92385332D01*
X150666500Y-92526668D01*
X150694073Y-92665287D01*
X150748159Y-92795864D01*
X150826681Y-92913380D01*
X150926620Y-93013319D01*
X151044136Y-93091841D01*
X151174713Y-93145927D01*
X151313332Y-93173500D01*
X151454668Y-93173500D01*
X151593287Y-93145927D01*
X151723864Y-93091841D01*
X151841380Y-93013319D01*
X151941319Y-92913380D01*
X152019841Y-92795864D01*
X152073927Y-92665287D01*
X152101500Y-92526668D01*
X152101500Y-92385332D01*
X152073927Y-92246713D01*
X152019841Y-92116136D01*
X152000381Y-92087011D01*
X153772500Y-92087011D01*
X153772500Y-92316989D01*
X153817366Y-92542547D01*
X153905375Y-92755019D01*
X154033144Y-92946238D01*
X154195762Y-93108856D01*
X154386981Y-93236625D01*
X154599453Y-93324634D01*
X154825011Y-93369500D01*
X155054989Y-93369500D01*
X155280547Y-93324634D01*
X155493019Y-93236625D01*
X155684238Y-93108856D01*
X155846856Y-92946238D01*
X155974625Y-92755019D01*
X156062634Y-92542547D01*
X156107500Y-92316989D01*
X156107500Y-92087011D01*
X156062634Y-91861453D01*
X155974625Y-91648981D01*
X155846856Y-91457762D01*
X155684238Y-91295144D01*
X155493019Y-91167375D01*
X155280547Y-91079366D01*
X155054989Y-91034500D01*
X154825011Y-91034500D01*
X154599453Y-91079366D01*
X154386981Y-91167375D01*
X154195762Y-91295144D01*
X154033144Y-91457762D01*
X153905375Y-91648981D01*
X153817366Y-91861453D01*
X153772500Y-92087011D01*
X152000381Y-92087011D01*
X151941319Y-91998620D01*
X151841380Y-91898681D01*
X151723864Y-91820159D01*
X151593287Y-91766073D01*
X151454668Y-91738500D01*
X151313332Y-91738500D01*
X151298139Y-91741522D01*
X150951746Y-91395129D01*
X150937829Y-91378171D01*
X150870145Y-91322624D01*
X150792926Y-91281349D01*
X150709137Y-91255932D01*
X150643830Y-91249500D01*
X150643820Y-91249500D01*
X150622000Y-91247351D01*
X150600180Y-91249500D01*
X130613925Y-91249500D01*
X130605319Y-91236620D01*
X130505380Y-91136681D01*
X130387864Y-91058159D01*
X130257287Y-91004073D01*
X130118668Y-90976500D01*
X129977332Y-90976500D01*
X129838713Y-91004073D01*
X129708136Y-91058159D01*
X129590620Y-91136681D01*
X129490681Y-91236620D01*
X129412159Y-91354136D01*
X129358073Y-91484713D01*
X129330500Y-91623332D01*
X124281264Y-91623332D01*
X124233341Y-91507636D01*
X124154819Y-91390120D01*
X124054880Y-91290181D01*
X123937364Y-91211659D01*
X123806787Y-91157573D01*
X123668168Y-91130000D01*
X123526832Y-91130000D01*
X123388213Y-91157573D01*
X123257636Y-91211659D01*
X123140120Y-91290181D01*
X123040181Y-91390120D01*
X122961659Y-91507636D01*
X122907573Y-91638213D01*
X122880000Y-91776832D01*
X120408577Y-91776832D01*
X120484625Y-91663019D01*
X120572634Y-91450547D01*
X120617500Y-91224989D01*
X120617500Y-90995011D01*
X120572634Y-90769453D01*
X120484625Y-90556981D01*
X120356856Y-90365762D01*
X120194238Y-90203144D01*
X120003019Y-90075375D01*
X119790547Y-89987366D01*
X119564989Y-89942500D01*
X119335011Y-89942500D01*
X119109453Y-89987366D01*
X118896981Y-90075375D01*
X118705762Y-90203144D01*
X118543144Y-90365762D01*
X118415375Y-90556981D01*
X118327366Y-90769453D01*
X118282500Y-90995011D01*
X117182500Y-90995011D01*
X117182500Y-87720000D01*
X118280964Y-87720000D01*
X118280964Y-89420000D01*
X118287094Y-89482241D01*
X118305249Y-89542090D01*
X118334731Y-89597247D01*
X118374407Y-89645593D01*
X118422753Y-89685269D01*
X118477910Y-89714751D01*
X118537759Y-89732906D01*
X118600000Y-89739036D01*
X120300000Y-89739036D01*
X120362241Y-89732906D01*
X120422090Y-89714751D01*
X120477247Y-89685269D01*
X120525593Y-89645593D01*
X120565269Y-89597247D01*
X120568430Y-89591332D01*
X133394500Y-89591332D01*
X133394500Y-89732668D01*
X133422073Y-89871287D01*
X133476159Y-90001864D01*
X133554681Y-90119380D01*
X133654620Y-90219319D01*
X133772136Y-90297841D01*
X133902713Y-90351927D01*
X134026263Y-90376503D01*
X134046955Y-90393484D01*
X134146238Y-90446552D01*
X134253966Y-90479231D01*
X134337926Y-90487500D01*
X134337927Y-90487500D01*
X134365999Y-90490265D01*
X134394071Y-90487500D01*
X141549843Y-90487500D01*
X141646136Y-90551841D01*
X141776713Y-90605927D01*
X141915332Y-90633500D01*
X142056668Y-90633500D01*
X142195287Y-90605927D01*
X142325864Y-90551841D01*
X142443380Y-90473319D01*
X142543319Y-90373380D01*
X142621841Y-90255864D01*
X142675927Y-90125287D01*
X142703500Y-89986668D01*
X142703500Y-89845332D01*
X142675927Y-89706713D01*
X142621841Y-89576136D01*
X142543319Y-89458620D01*
X142443380Y-89358681D01*
X142325864Y-89280159D01*
X142195287Y-89226073D01*
X142056668Y-89198500D01*
X141915332Y-89198500D01*
X141776713Y-89226073D01*
X141646136Y-89280159D01*
X141549843Y-89344500D01*
X134757104Y-89344500D01*
X134747841Y-89322136D01*
X134669319Y-89204620D01*
X134569380Y-89104681D01*
X134451864Y-89026159D01*
X134321287Y-88972073D01*
X134182668Y-88944500D01*
X134041332Y-88944500D01*
X133902713Y-88972073D01*
X133772136Y-89026159D01*
X133654620Y-89104681D01*
X133554681Y-89204620D01*
X133476159Y-89322136D01*
X133422073Y-89452713D01*
X133394500Y-89591332D01*
X120568430Y-89591332D01*
X120594751Y-89542090D01*
X120612906Y-89482241D01*
X120619036Y-89420000D01*
X120619036Y-87720000D01*
X120612906Y-87657759D01*
X120594751Y-87597910D01*
X120565269Y-87542753D01*
X120525593Y-87494407D01*
X120477247Y-87454731D01*
X120422090Y-87425249D01*
X120362241Y-87407094D01*
X120300000Y-87400964D01*
X118600000Y-87400964D01*
X118537759Y-87407094D01*
X118477910Y-87425249D01*
X118422753Y-87454731D01*
X118374407Y-87494407D01*
X118334731Y-87542753D01*
X118305249Y-87597910D01*
X118287094Y-87657759D01*
X118280964Y-87720000D01*
X117182500Y-87720000D01*
X117182500Y-86702500D01*
X157137500Y-86702500D01*
X157137501Y-107607500D01*
G37*
%TD.AperFunction*%
%TD*%
M02*
