%FSLAX45Y45*%
G04 Gerber Fmt 4.5, Leading zero omitted, Abs format (unit mm)*
G04 Created by KiCad (PCBNEW (5.1.8)-1) date 2021-01-01 08:41:14*
%MOMM*%
%LPD*%
G01*
G04 APERTURE LIST*
%TA.AperFunction,Profile*%
%ADD10C,0.050000*%
%TD*%
%ADD11C,0.200000*%
%ADD12C,0.300000*%
G04 APERTURE END LIST*
D10*
X15748000Y-8636000D02*
X15748000Y-10795000D01*
X11988800Y-8636000D02*
X11684000Y-8636000D01*
X15748000Y-8636000D02*
X11988800Y-8636000D01*
X12674600Y-10795000D02*
X15748000Y-10795000D01*
X11684000Y-10795000D02*
X12674600Y-10795000D01*
X11684000Y-8636000D02*
X11684000Y-10795000D01*
D11*
X12248200Y-10038400D02*
X12288200Y-10078400D01*
X12288200Y-10038400D02*
X12248200Y-10078400D01*
X12324400Y-10152700D02*
X12364400Y-10192700D01*
X12364400Y-10152700D02*
X12324400Y-10192700D01*
X12339750Y-9164750D02*
X12379750Y-9204750D01*
X12379750Y-9164750D02*
X12339750Y-9204750D01*
X12362500Y-10533700D02*
X12402500Y-10573700D01*
X12402500Y-10533700D02*
X12362500Y-10573700D01*
X12426000Y-10013000D02*
X12466000Y-10053000D01*
X12466000Y-10013000D02*
X12426000Y-10053000D01*
X12527600Y-9149400D02*
X12567600Y-9189400D01*
X12567600Y-9149400D02*
X12527600Y-9189400D01*
X12591100Y-10584500D02*
X12631100Y-10624500D01*
X12631100Y-10584500D02*
X12591100Y-10624500D01*
X12603800Y-9962200D02*
X12643800Y-10002200D01*
X12643800Y-9962200D02*
X12603800Y-10002200D01*
X12629200Y-10419400D02*
X12669200Y-10459400D01*
X12669200Y-10419400D02*
X12629200Y-10459400D01*
X12705400Y-10114600D02*
X12745400Y-10154600D01*
X12745400Y-10114600D02*
X12705400Y-10154600D01*
X12883200Y-10089200D02*
X12923200Y-10129200D01*
X12923200Y-10089200D02*
X12883200Y-10129200D01*
X12959400Y-8920800D02*
X12999400Y-8960800D01*
X12999400Y-8920800D02*
X12959400Y-8960800D01*
X12959400Y-10419400D02*
X12999400Y-10459400D01*
X12999400Y-10419400D02*
X12959400Y-10459400D01*
X12984800Y-9149400D02*
X13024800Y-9189400D01*
X13024800Y-9149400D02*
X12984800Y-9189400D01*
X13137200Y-9962200D02*
X13177200Y-10002200D01*
X13177200Y-9962200D02*
X13137200Y-10002200D01*
X13162600Y-10584500D02*
X13202600Y-10624500D01*
X13202600Y-10584500D02*
X13162600Y-10624500D01*
X13238800Y-9784400D02*
X13278800Y-9824400D01*
X13278800Y-9784400D02*
X13238800Y-9824400D01*
X13391200Y-8946200D02*
X13431200Y-8986200D01*
X13431200Y-8946200D02*
X13391200Y-8986200D01*
X13416600Y-9606600D02*
X13456600Y-9646600D01*
X13456600Y-9606600D02*
X13416600Y-9646600D01*
X13569000Y-10584500D02*
X13609000Y-10624500D01*
X13609000Y-10584500D02*
X13569000Y-10624500D01*
X13657900Y-10406700D02*
X13697900Y-10446700D01*
X13697900Y-10406700D02*
X13657900Y-10446700D01*
X13797600Y-9657400D02*
X13837600Y-9697400D01*
X13837600Y-9657400D02*
X13797600Y-9697400D01*
X14000800Y-8768400D02*
X14040800Y-8808400D01*
X14040800Y-8768400D02*
X14000800Y-8808400D01*
X14178600Y-8971600D02*
X14218600Y-9011600D01*
X14218600Y-8971600D02*
X14178600Y-9011600D01*
X14204000Y-10394000D02*
X14244000Y-10434000D01*
X14244000Y-10394000D02*
X14204000Y-10434000D01*
X14204000Y-10584500D02*
X14244000Y-10624500D01*
X14244000Y-10584500D02*
X14204000Y-10624500D01*
X14381800Y-9352600D02*
X14421800Y-9392600D01*
X14421800Y-9352600D02*
X14381800Y-9392600D01*
X14458000Y-10013000D02*
X14498000Y-10053000D01*
X14498000Y-10013000D02*
X14458000Y-10053000D01*
X14483400Y-9505000D02*
X14523400Y-9545000D01*
X14523400Y-9505000D02*
X14483400Y-9545000D01*
X14521500Y-10470200D02*
X14561500Y-10510200D01*
X14561500Y-10470200D02*
X14521500Y-10510200D01*
X14585000Y-9911400D02*
X14625000Y-9951400D01*
X14625000Y-9911400D02*
X14585000Y-9951400D01*
X14648500Y-10038400D02*
X14688500Y-10078400D01*
X14688500Y-10038400D02*
X14648500Y-10078400D01*
X14737400Y-9936800D02*
X14777400Y-9976800D01*
X14777400Y-9936800D02*
X14737400Y-9976800D01*
X14839000Y-10063800D02*
X14879000Y-10103800D01*
X14879000Y-10063800D02*
X14839000Y-10103800D01*
X14839000Y-10521000D02*
X14879000Y-10561000D01*
X14879000Y-10521000D02*
X14839000Y-10561000D01*
X15118400Y-9225600D02*
X15158400Y-9265600D01*
X15158400Y-9225600D02*
X15118400Y-9265600D01*
X12613000Y-10287000D02*
G75*
G03*
X12613000Y-10287000I-40000J0D01*
G01*
X13101000Y-10287000D02*
G75*
G03*
X13101000Y-10287000I-40000J0D01*
G01*
X11945000Y-8807000D02*
X11945000Y-8907000D01*
X11895000Y-8857000D02*
X11995000Y-8857000D01*
X11945000Y-9061000D02*
X11945000Y-9161000D01*
X11895000Y-9111000D02*
X11995000Y-9111000D01*
X11945000Y-9315000D02*
X11945000Y-9415000D01*
X11895000Y-9365000D02*
X11995000Y-9365000D01*
X11945000Y-9569000D02*
X11945000Y-9669000D01*
X11895000Y-9619000D02*
X11995000Y-9619000D01*
X11945000Y-9823000D02*
X11945000Y-9923000D01*
X11895000Y-9873000D02*
X11995000Y-9873000D01*
X11945000Y-10077000D02*
X11945000Y-10177000D01*
X11895000Y-10127000D02*
X11995000Y-10127000D01*
X11945000Y-10331000D02*
X11945000Y-10431000D01*
X11895000Y-10381000D02*
X11995000Y-10381000D01*
X15494000Y-9170200D02*
X15494000Y-9270200D01*
X15444000Y-9220200D02*
X15544000Y-9220200D01*
X15494000Y-9424200D02*
X15494000Y-9524200D01*
X15444000Y-9474200D02*
X15544000Y-9474200D01*
X15494000Y-9678200D02*
X15494000Y-9778200D01*
X15444000Y-9728200D02*
X15544000Y-9728200D01*
X15494000Y-9932200D02*
X15494000Y-10032200D01*
X15444000Y-9982200D02*
X15544000Y-9982200D01*
D12*
X11967928Y-11263214D02*
X11967928Y-10963214D01*
X12039357Y-10963214D01*
X12082214Y-10977500D01*
X12110786Y-11006072D01*
X12125071Y-11034643D01*
X12139357Y-11091786D01*
X12139357Y-11134643D01*
X12125071Y-11191786D01*
X12110786Y-11220357D01*
X12082214Y-11248929D01*
X12039357Y-11263214D01*
X11967928Y-11263214D01*
X12267928Y-11263214D02*
X12267928Y-11063214D01*
X12267928Y-11120357D02*
X12282214Y-11091786D01*
X12296500Y-11077500D01*
X12325071Y-11063214D01*
X12353643Y-11063214D01*
X12453643Y-11263214D02*
X12453643Y-11063214D01*
X12453643Y-10963214D02*
X12439357Y-10977500D01*
X12453643Y-10991786D01*
X12467928Y-10977500D01*
X12453643Y-10963214D01*
X12453643Y-10991786D01*
X12639357Y-11263214D02*
X12610786Y-11248929D01*
X12596500Y-11220357D01*
X12596500Y-10963214D01*
X12796500Y-11263214D02*
X12767928Y-11248929D01*
X12753643Y-11220357D01*
X12753643Y-10963214D01*
X13139357Y-11263214D02*
X13139357Y-10963214D01*
X13239357Y-11177500D01*
X13339357Y-10963214D01*
X13339357Y-11263214D01*
X13610786Y-11263214D02*
X13610786Y-11106072D01*
X13596500Y-11077500D01*
X13567928Y-11063214D01*
X13510786Y-11063214D01*
X13482214Y-11077500D01*
X13610786Y-11248929D02*
X13582214Y-11263214D01*
X13510786Y-11263214D01*
X13482214Y-11248929D01*
X13467928Y-11220357D01*
X13467928Y-11191786D01*
X13482214Y-11163214D01*
X13510786Y-11148929D01*
X13582214Y-11148929D01*
X13610786Y-11134643D01*
X13753643Y-11063214D02*
X13753643Y-11363214D01*
X13753643Y-11077500D02*
X13782214Y-11063214D01*
X13839357Y-11063214D01*
X13867928Y-11077500D01*
X13882214Y-11091786D01*
X13896500Y-11120357D01*
X13896500Y-11206071D01*
X13882214Y-11234643D01*
X13867928Y-11248929D01*
X13839357Y-11263214D01*
X13782214Y-11263214D01*
X13753643Y-11248929D01*
X14025071Y-11234643D02*
X14039357Y-11248929D01*
X14025071Y-11263214D01*
X14010786Y-11248929D01*
X14025071Y-11234643D01*
X14025071Y-11263214D01*
X14025071Y-11077500D02*
X14039357Y-11091786D01*
X14025071Y-11106072D01*
X14010786Y-11091786D01*
X14025071Y-11077500D01*
X14025071Y-11106072D01*
X11641500Y-11737500D02*
X11681500Y-11777500D01*
X11681500Y-11737500D02*
X11641500Y-11777500D01*
X12025071Y-11593214D02*
X12053643Y-11593214D01*
X12082214Y-11607500D01*
X12096500Y-11621786D01*
X12110786Y-11650357D01*
X12125071Y-11707500D01*
X12125071Y-11778929D01*
X12110786Y-11836071D01*
X12096500Y-11864643D01*
X12082214Y-11878929D01*
X12053643Y-11893214D01*
X12025071Y-11893214D01*
X11996500Y-11878929D01*
X11982214Y-11864643D01*
X11967928Y-11836071D01*
X11953643Y-11778929D01*
X11953643Y-11707500D01*
X11967928Y-11650357D01*
X11982214Y-11621786D01*
X11996500Y-11607500D01*
X12025071Y-11593214D01*
X12253643Y-11864643D02*
X12267928Y-11878929D01*
X12253643Y-11893214D01*
X12239357Y-11878929D01*
X12253643Y-11864643D01*
X12253643Y-11893214D01*
X12525071Y-11693214D02*
X12525071Y-11893214D01*
X12453643Y-11578929D02*
X12382214Y-11793214D01*
X12567928Y-11793214D01*
X12739357Y-11593214D02*
X12767928Y-11593214D01*
X12796500Y-11607500D01*
X12810786Y-11621786D01*
X12825071Y-11650357D01*
X12839357Y-11707500D01*
X12839357Y-11778929D01*
X12825071Y-11836071D01*
X12810786Y-11864643D01*
X12796500Y-11878929D01*
X12767928Y-11893214D01*
X12739357Y-11893214D01*
X12710786Y-11878929D01*
X12696500Y-11864643D01*
X12682214Y-11836071D01*
X12667928Y-11778929D01*
X12667928Y-11707500D01*
X12682214Y-11650357D01*
X12696500Y-11621786D01*
X12710786Y-11607500D01*
X12739357Y-11593214D01*
X12967928Y-11893214D02*
X12967928Y-11693214D01*
X12967928Y-11721786D02*
X12982214Y-11707500D01*
X13010786Y-11693214D01*
X13053643Y-11693214D01*
X13082214Y-11707500D01*
X13096500Y-11736071D01*
X13096500Y-11893214D01*
X13096500Y-11736071D02*
X13110786Y-11707500D01*
X13139357Y-11693214D01*
X13182214Y-11693214D01*
X13210786Y-11707500D01*
X13225071Y-11736071D01*
X13225071Y-11893214D01*
X13367928Y-11893214D02*
X13367928Y-11693214D01*
X13367928Y-11721786D02*
X13382214Y-11707500D01*
X13410786Y-11693214D01*
X13453643Y-11693214D01*
X13482214Y-11707500D01*
X13496500Y-11736071D01*
X13496500Y-11893214D01*
X13496500Y-11736071D02*
X13510786Y-11707500D01*
X13539357Y-11693214D01*
X13582214Y-11693214D01*
X13610786Y-11707500D01*
X13625071Y-11736071D01*
X13625071Y-11893214D01*
X14210786Y-11578929D02*
X13953643Y-11964643D01*
X14596500Y-11593214D02*
X14625071Y-11593214D01*
X14653643Y-11607500D01*
X14667928Y-11621786D01*
X14682214Y-11650357D01*
X14696500Y-11707500D01*
X14696500Y-11778929D01*
X14682214Y-11836071D01*
X14667928Y-11864643D01*
X14653643Y-11878929D01*
X14625071Y-11893214D01*
X14596500Y-11893214D01*
X14567928Y-11878929D01*
X14553643Y-11864643D01*
X14539357Y-11836071D01*
X14525071Y-11778929D01*
X14525071Y-11707500D01*
X14539357Y-11650357D01*
X14553643Y-11621786D01*
X14567928Y-11607500D01*
X14596500Y-11593214D01*
X14825071Y-11864643D02*
X14839357Y-11878929D01*
X14825071Y-11893214D01*
X14810786Y-11878929D01*
X14825071Y-11864643D01*
X14825071Y-11893214D01*
X15025071Y-11593214D02*
X15053643Y-11593214D01*
X15082214Y-11607500D01*
X15096500Y-11621786D01*
X15110786Y-11650357D01*
X15125071Y-11707500D01*
X15125071Y-11778929D01*
X15110786Y-11836071D01*
X15096500Y-11864643D01*
X15082214Y-11878929D01*
X15053643Y-11893214D01*
X15025071Y-11893214D01*
X14996500Y-11878929D01*
X14982214Y-11864643D01*
X14967928Y-11836071D01*
X14953643Y-11778929D01*
X14953643Y-11707500D01*
X14967928Y-11650357D01*
X14982214Y-11621786D01*
X14996500Y-11607500D01*
X15025071Y-11593214D01*
X15410786Y-11893214D02*
X15239357Y-11893214D01*
X15325071Y-11893214D02*
X15325071Y-11593214D01*
X15296500Y-11636071D01*
X15267928Y-11664643D01*
X15239357Y-11678929D01*
X15667928Y-11593214D02*
X15610786Y-11593214D01*
X15582214Y-11607500D01*
X15567928Y-11621786D01*
X15539357Y-11664643D01*
X15525071Y-11721786D01*
X15525071Y-11836071D01*
X15539357Y-11864643D01*
X15553643Y-11878929D01*
X15582214Y-11893214D01*
X15639357Y-11893214D01*
X15667928Y-11878929D01*
X15682214Y-11864643D01*
X15696500Y-11836071D01*
X15696500Y-11764643D01*
X15682214Y-11736071D01*
X15667928Y-11721786D01*
X15639357Y-11707500D01*
X15582214Y-11707500D01*
X15553643Y-11721786D01*
X15539357Y-11736071D01*
X15525071Y-11764643D01*
X15810786Y-11593214D02*
X15810786Y-11650357D01*
X15925071Y-11593214D02*
X15925071Y-11650357D01*
X16367928Y-12007500D02*
X16353643Y-11993214D01*
X16325071Y-11950357D01*
X16310786Y-11921786D01*
X16296500Y-11878929D01*
X16282214Y-11807500D01*
X16282214Y-11750357D01*
X16296500Y-11678929D01*
X16310786Y-11636071D01*
X16325071Y-11607500D01*
X16353643Y-11564643D01*
X16367928Y-11550357D01*
X16453643Y-11593214D02*
X16639357Y-11593214D01*
X16539357Y-11707500D01*
X16582214Y-11707500D01*
X16610786Y-11721786D01*
X16625071Y-11736071D01*
X16639357Y-11764643D01*
X16639357Y-11836071D01*
X16625071Y-11864643D01*
X16610786Y-11878929D01*
X16582214Y-11893214D01*
X16496500Y-11893214D01*
X16467928Y-11878929D01*
X16453643Y-11864643D01*
X16896500Y-11593214D02*
X16839357Y-11593214D01*
X16810786Y-11607500D01*
X16796500Y-11621786D01*
X16767928Y-11664643D01*
X16753643Y-11721786D01*
X16753643Y-11836071D01*
X16767928Y-11864643D01*
X16782214Y-11878929D01*
X16810786Y-11893214D01*
X16867928Y-11893214D01*
X16896500Y-11878929D01*
X16910786Y-11864643D01*
X16925071Y-11836071D01*
X16925071Y-11764643D01*
X16910786Y-11736071D01*
X16896500Y-11721786D01*
X16867928Y-11707500D01*
X16810786Y-11707500D01*
X16782214Y-11721786D01*
X16767928Y-11736071D01*
X16753643Y-11764643D01*
X17282214Y-11893214D02*
X17282214Y-11593214D01*
X17410786Y-11893214D02*
X17410786Y-11736071D01*
X17396500Y-11707500D01*
X17367928Y-11693214D01*
X17325071Y-11693214D01*
X17296500Y-11707500D01*
X17282214Y-11721786D01*
X17596500Y-11893214D02*
X17567928Y-11878929D01*
X17553643Y-11864643D01*
X17539357Y-11836071D01*
X17539357Y-11750357D01*
X17553643Y-11721786D01*
X17567928Y-11707500D01*
X17596500Y-11693214D01*
X17639357Y-11693214D01*
X17667928Y-11707500D01*
X17682214Y-11721786D01*
X17696500Y-11750357D01*
X17696500Y-11836071D01*
X17682214Y-11864643D01*
X17667928Y-11878929D01*
X17639357Y-11893214D01*
X17596500Y-11893214D01*
X17867928Y-11893214D02*
X17839357Y-11878929D01*
X17825071Y-11850357D01*
X17825071Y-11593214D01*
X18096500Y-11878929D02*
X18067928Y-11893214D01*
X18010786Y-11893214D01*
X17982214Y-11878929D01*
X17967928Y-11850357D01*
X17967928Y-11736071D01*
X17982214Y-11707500D01*
X18010786Y-11693214D01*
X18067928Y-11693214D01*
X18096500Y-11707500D01*
X18110786Y-11736071D01*
X18110786Y-11764643D01*
X17967928Y-11793214D01*
X18225071Y-11878929D02*
X18253643Y-11893214D01*
X18310786Y-11893214D01*
X18339357Y-11878929D01*
X18353643Y-11850357D01*
X18353643Y-11836071D01*
X18339357Y-11807500D01*
X18310786Y-11793214D01*
X18267928Y-11793214D01*
X18239357Y-11778929D01*
X18225071Y-11750357D01*
X18225071Y-11736071D01*
X18239357Y-11707500D01*
X18267928Y-11693214D01*
X18310786Y-11693214D01*
X18339357Y-11707500D01*
X18453643Y-12007500D02*
X18467928Y-11993214D01*
X18496500Y-11950357D01*
X18510786Y-11921786D01*
X18525071Y-11878929D01*
X18539357Y-11807500D01*
X18539357Y-11750357D01*
X18525071Y-11678929D01*
X18510786Y-11636071D01*
X18496500Y-11607500D01*
X18467928Y-11564643D01*
X18453643Y-11550357D01*
X11681500Y-12153500D02*
G75*
G03*
X11681500Y-12153500I-40000J0D01*
G01*
X12025071Y-11989214D02*
X12053643Y-11989214D01*
X12082214Y-12003500D01*
X12096500Y-12017786D01*
X12110786Y-12046357D01*
X12125071Y-12103500D01*
X12125071Y-12174929D01*
X12110786Y-12232071D01*
X12096500Y-12260643D01*
X12082214Y-12274929D01*
X12053643Y-12289214D01*
X12025071Y-12289214D01*
X11996500Y-12274929D01*
X11982214Y-12260643D01*
X11967928Y-12232071D01*
X11953643Y-12174929D01*
X11953643Y-12103500D01*
X11967928Y-12046357D01*
X11982214Y-12017786D01*
X11996500Y-12003500D01*
X12025071Y-11989214D01*
X12253643Y-12260643D02*
X12267928Y-12274929D01*
X12253643Y-12289214D01*
X12239357Y-12274929D01*
X12253643Y-12260643D01*
X12253643Y-12289214D01*
X12439357Y-12117786D02*
X12410786Y-12103500D01*
X12396500Y-12089214D01*
X12382214Y-12060643D01*
X12382214Y-12046357D01*
X12396500Y-12017786D01*
X12410786Y-12003500D01*
X12439357Y-11989214D01*
X12496500Y-11989214D01*
X12525071Y-12003500D01*
X12539357Y-12017786D01*
X12553643Y-12046357D01*
X12553643Y-12060643D01*
X12539357Y-12089214D01*
X12525071Y-12103500D01*
X12496500Y-12117786D01*
X12439357Y-12117786D01*
X12410786Y-12132071D01*
X12396500Y-12146357D01*
X12382214Y-12174929D01*
X12382214Y-12232071D01*
X12396500Y-12260643D01*
X12410786Y-12274929D01*
X12439357Y-12289214D01*
X12496500Y-12289214D01*
X12525071Y-12274929D01*
X12539357Y-12260643D01*
X12553643Y-12232071D01*
X12553643Y-12174929D01*
X12539357Y-12146357D01*
X12525071Y-12132071D01*
X12496500Y-12117786D01*
X12739357Y-11989214D02*
X12767928Y-11989214D01*
X12796500Y-12003500D01*
X12810786Y-12017786D01*
X12825071Y-12046357D01*
X12839357Y-12103500D01*
X12839357Y-12174929D01*
X12825071Y-12232071D01*
X12810786Y-12260643D01*
X12796500Y-12274929D01*
X12767928Y-12289214D01*
X12739357Y-12289214D01*
X12710786Y-12274929D01*
X12696500Y-12260643D01*
X12682214Y-12232071D01*
X12667928Y-12174929D01*
X12667928Y-12103500D01*
X12682214Y-12046357D01*
X12696500Y-12017786D01*
X12710786Y-12003500D01*
X12739357Y-11989214D01*
X12967928Y-12289214D02*
X12967928Y-12089214D01*
X12967928Y-12117786D02*
X12982214Y-12103500D01*
X13010786Y-12089214D01*
X13053643Y-12089214D01*
X13082214Y-12103500D01*
X13096500Y-12132071D01*
X13096500Y-12289214D01*
X13096500Y-12132071D02*
X13110786Y-12103500D01*
X13139357Y-12089214D01*
X13182214Y-12089214D01*
X13210786Y-12103500D01*
X13225071Y-12132071D01*
X13225071Y-12289214D01*
X13367928Y-12289214D02*
X13367928Y-12089214D01*
X13367928Y-12117786D02*
X13382214Y-12103500D01*
X13410786Y-12089214D01*
X13453643Y-12089214D01*
X13482214Y-12103500D01*
X13496500Y-12132071D01*
X13496500Y-12289214D01*
X13496500Y-12132071D02*
X13510786Y-12103500D01*
X13539357Y-12089214D01*
X13582214Y-12089214D01*
X13610786Y-12103500D01*
X13625071Y-12132071D01*
X13625071Y-12289214D01*
X14210786Y-11974929D02*
X13953643Y-12360643D01*
X14596500Y-11989214D02*
X14625071Y-11989214D01*
X14653643Y-12003500D01*
X14667928Y-12017786D01*
X14682214Y-12046357D01*
X14696500Y-12103500D01*
X14696500Y-12174929D01*
X14682214Y-12232071D01*
X14667928Y-12260643D01*
X14653643Y-12274929D01*
X14625071Y-12289214D01*
X14596500Y-12289214D01*
X14567928Y-12274929D01*
X14553643Y-12260643D01*
X14539357Y-12232071D01*
X14525071Y-12174929D01*
X14525071Y-12103500D01*
X14539357Y-12046357D01*
X14553643Y-12017786D01*
X14567928Y-12003500D01*
X14596500Y-11989214D01*
X14825071Y-12260643D02*
X14839357Y-12274929D01*
X14825071Y-12289214D01*
X14810786Y-12274929D01*
X14825071Y-12260643D01*
X14825071Y-12289214D01*
X15025071Y-11989214D02*
X15053643Y-11989214D01*
X15082214Y-12003500D01*
X15096500Y-12017786D01*
X15110786Y-12046357D01*
X15125071Y-12103500D01*
X15125071Y-12174929D01*
X15110786Y-12232071D01*
X15096500Y-12260643D01*
X15082214Y-12274929D01*
X15053643Y-12289214D01*
X15025071Y-12289214D01*
X14996500Y-12274929D01*
X14982214Y-12260643D01*
X14967928Y-12232071D01*
X14953643Y-12174929D01*
X14953643Y-12103500D01*
X14967928Y-12046357D01*
X14982214Y-12017786D01*
X14996500Y-12003500D01*
X15025071Y-11989214D01*
X15225071Y-11989214D02*
X15410786Y-11989214D01*
X15310786Y-12103500D01*
X15353643Y-12103500D01*
X15382214Y-12117786D01*
X15396500Y-12132071D01*
X15410786Y-12160643D01*
X15410786Y-12232071D01*
X15396500Y-12260643D01*
X15382214Y-12274929D01*
X15353643Y-12289214D01*
X15267928Y-12289214D01*
X15239357Y-12274929D01*
X15225071Y-12260643D01*
X15696500Y-12289214D02*
X15525071Y-12289214D01*
X15610786Y-12289214D02*
X15610786Y-11989214D01*
X15582214Y-12032071D01*
X15553643Y-12060643D01*
X15525071Y-12074929D01*
X15810786Y-11989214D02*
X15810786Y-12046357D01*
X15925071Y-11989214D02*
X15925071Y-12046357D01*
X16367928Y-12403500D02*
X16353643Y-12389214D01*
X16325071Y-12346357D01*
X16310786Y-12317786D01*
X16296500Y-12274929D01*
X16282214Y-12203500D01*
X16282214Y-12146357D01*
X16296500Y-12074929D01*
X16310786Y-12032071D01*
X16325071Y-12003500D01*
X16353643Y-11960643D01*
X16367928Y-11946357D01*
X16467928Y-12017786D02*
X16482214Y-12003500D01*
X16510786Y-11989214D01*
X16582214Y-11989214D01*
X16610786Y-12003500D01*
X16625071Y-12017786D01*
X16639357Y-12046357D01*
X16639357Y-12074929D01*
X16625071Y-12117786D01*
X16453643Y-12289214D01*
X16639357Y-12289214D01*
X16996500Y-12289214D02*
X16996500Y-11989214D01*
X17125071Y-12289214D02*
X17125071Y-12132071D01*
X17110786Y-12103500D01*
X17082214Y-12089214D01*
X17039357Y-12089214D01*
X17010786Y-12103500D01*
X16996500Y-12117786D01*
X17310786Y-12289214D02*
X17282214Y-12274929D01*
X17267928Y-12260643D01*
X17253643Y-12232071D01*
X17253643Y-12146357D01*
X17267928Y-12117786D01*
X17282214Y-12103500D01*
X17310786Y-12089214D01*
X17353643Y-12089214D01*
X17382214Y-12103500D01*
X17396500Y-12117786D01*
X17410786Y-12146357D01*
X17410786Y-12232071D01*
X17396500Y-12260643D01*
X17382214Y-12274929D01*
X17353643Y-12289214D01*
X17310786Y-12289214D01*
X17582214Y-12289214D02*
X17553643Y-12274929D01*
X17539357Y-12246357D01*
X17539357Y-11989214D01*
X17810786Y-12274929D02*
X17782214Y-12289214D01*
X17725071Y-12289214D01*
X17696500Y-12274929D01*
X17682214Y-12246357D01*
X17682214Y-12132071D01*
X17696500Y-12103500D01*
X17725071Y-12089214D01*
X17782214Y-12089214D01*
X17810786Y-12103500D01*
X17825071Y-12132071D01*
X17825071Y-12160643D01*
X17682214Y-12189214D01*
X17939357Y-12274929D02*
X17967928Y-12289214D01*
X18025071Y-12289214D01*
X18053643Y-12274929D01*
X18067928Y-12246357D01*
X18067928Y-12232071D01*
X18053643Y-12203500D01*
X18025071Y-12189214D01*
X17982214Y-12189214D01*
X17953643Y-12174929D01*
X17939357Y-12146357D01*
X17939357Y-12132071D01*
X17953643Y-12103500D01*
X17982214Y-12089214D01*
X18025071Y-12089214D01*
X18053643Y-12103500D01*
X18167928Y-12403500D02*
X18182214Y-12389214D01*
X18210786Y-12346357D01*
X18225071Y-12317786D01*
X18239357Y-12274929D01*
X18253643Y-12203500D01*
X18253643Y-12146357D01*
X18239357Y-12074929D01*
X18225071Y-12032071D01*
X18210786Y-12003500D01*
X18182214Y-11960643D01*
X18167928Y-11946357D01*
X11631500Y-12499500D02*
X11631500Y-12599500D01*
X11581500Y-12549500D02*
X11681500Y-12549500D01*
X12125071Y-12685214D02*
X11953643Y-12685214D01*
X12039357Y-12685214D02*
X12039357Y-12385214D01*
X12010786Y-12428071D01*
X11982214Y-12456643D01*
X11953643Y-12470929D01*
X12253643Y-12656643D02*
X12267928Y-12670929D01*
X12253643Y-12685214D01*
X12239357Y-12670929D01*
X12253643Y-12656643D01*
X12253643Y-12685214D01*
X12453643Y-12385214D02*
X12482214Y-12385214D01*
X12510786Y-12399500D01*
X12525071Y-12413786D01*
X12539357Y-12442357D01*
X12553643Y-12499500D01*
X12553643Y-12570929D01*
X12539357Y-12628071D01*
X12525071Y-12656643D01*
X12510786Y-12670929D01*
X12482214Y-12685214D01*
X12453643Y-12685214D01*
X12425071Y-12670929D01*
X12410786Y-12656643D01*
X12396500Y-12628071D01*
X12382214Y-12570929D01*
X12382214Y-12499500D01*
X12396500Y-12442357D01*
X12410786Y-12413786D01*
X12425071Y-12399500D01*
X12453643Y-12385214D01*
X12739357Y-12385214D02*
X12767928Y-12385214D01*
X12796500Y-12399500D01*
X12810786Y-12413786D01*
X12825071Y-12442357D01*
X12839357Y-12499500D01*
X12839357Y-12570929D01*
X12825071Y-12628071D01*
X12810786Y-12656643D01*
X12796500Y-12670929D01*
X12767928Y-12685214D01*
X12739357Y-12685214D01*
X12710786Y-12670929D01*
X12696500Y-12656643D01*
X12682214Y-12628071D01*
X12667928Y-12570929D01*
X12667928Y-12499500D01*
X12682214Y-12442357D01*
X12696500Y-12413786D01*
X12710786Y-12399500D01*
X12739357Y-12385214D01*
X12967928Y-12685214D02*
X12967928Y-12485214D01*
X12967928Y-12513786D02*
X12982214Y-12499500D01*
X13010786Y-12485214D01*
X13053643Y-12485214D01*
X13082214Y-12499500D01*
X13096500Y-12528071D01*
X13096500Y-12685214D01*
X13096500Y-12528071D02*
X13110786Y-12499500D01*
X13139357Y-12485214D01*
X13182214Y-12485214D01*
X13210786Y-12499500D01*
X13225071Y-12528071D01*
X13225071Y-12685214D01*
X13367928Y-12685214D02*
X13367928Y-12485214D01*
X13367928Y-12513786D02*
X13382214Y-12499500D01*
X13410786Y-12485214D01*
X13453643Y-12485214D01*
X13482214Y-12499500D01*
X13496500Y-12528071D01*
X13496500Y-12685214D01*
X13496500Y-12528071D02*
X13510786Y-12499500D01*
X13539357Y-12485214D01*
X13582214Y-12485214D01*
X13610786Y-12499500D01*
X13625071Y-12528071D01*
X13625071Y-12685214D01*
X14210786Y-12370929D02*
X13953643Y-12756643D01*
X14596500Y-12385214D02*
X14625071Y-12385214D01*
X14653643Y-12399500D01*
X14667928Y-12413786D01*
X14682214Y-12442357D01*
X14696500Y-12499500D01*
X14696500Y-12570929D01*
X14682214Y-12628071D01*
X14667928Y-12656643D01*
X14653643Y-12670929D01*
X14625071Y-12685214D01*
X14596500Y-12685214D01*
X14567928Y-12670929D01*
X14553643Y-12656643D01*
X14539357Y-12628071D01*
X14525071Y-12570929D01*
X14525071Y-12499500D01*
X14539357Y-12442357D01*
X14553643Y-12413786D01*
X14567928Y-12399500D01*
X14596500Y-12385214D01*
X14825071Y-12656643D02*
X14839357Y-12670929D01*
X14825071Y-12685214D01*
X14810786Y-12670929D01*
X14825071Y-12656643D01*
X14825071Y-12685214D01*
X15025071Y-12385214D02*
X15053643Y-12385214D01*
X15082214Y-12399500D01*
X15096500Y-12413786D01*
X15110786Y-12442357D01*
X15125071Y-12499500D01*
X15125071Y-12570929D01*
X15110786Y-12628071D01*
X15096500Y-12656643D01*
X15082214Y-12670929D01*
X15053643Y-12685214D01*
X15025071Y-12685214D01*
X14996500Y-12670929D01*
X14982214Y-12656643D01*
X14967928Y-12628071D01*
X14953643Y-12570929D01*
X14953643Y-12499500D01*
X14967928Y-12442357D01*
X14982214Y-12413786D01*
X14996500Y-12399500D01*
X15025071Y-12385214D01*
X15225071Y-12385214D02*
X15410786Y-12385214D01*
X15310786Y-12499500D01*
X15353643Y-12499500D01*
X15382214Y-12513786D01*
X15396500Y-12528071D01*
X15410786Y-12556643D01*
X15410786Y-12628071D01*
X15396500Y-12656643D01*
X15382214Y-12670929D01*
X15353643Y-12685214D01*
X15267928Y-12685214D01*
X15239357Y-12670929D01*
X15225071Y-12656643D01*
X15553643Y-12685214D02*
X15610786Y-12685214D01*
X15639357Y-12670929D01*
X15653643Y-12656643D01*
X15682214Y-12613786D01*
X15696500Y-12556643D01*
X15696500Y-12442357D01*
X15682214Y-12413786D01*
X15667928Y-12399500D01*
X15639357Y-12385214D01*
X15582214Y-12385214D01*
X15553643Y-12399500D01*
X15539357Y-12413786D01*
X15525071Y-12442357D01*
X15525071Y-12513786D01*
X15539357Y-12542357D01*
X15553643Y-12556643D01*
X15582214Y-12570929D01*
X15639357Y-12570929D01*
X15667928Y-12556643D01*
X15682214Y-12542357D01*
X15696500Y-12513786D01*
X15810786Y-12385214D02*
X15810786Y-12442357D01*
X15925071Y-12385214D02*
X15925071Y-12442357D01*
X16367928Y-12799500D02*
X16353643Y-12785214D01*
X16325071Y-12742357D01*
X16310786Y-12713786D01*
X16296500Y-12670929D01*
X16282214Y-12599500D01*
X16282214Y-12542357D01*
X16296500Y-12470929D01*
X16310786Y-12428071D01*
X16325071Y-12399500D01*
X16353643Y-12356643D01*
X16367928Y-12342357D01*
X16639357Y-12685214D02*
X16467928Y-12685214D01*
X16553643Y-12685214D02*
X16553643Y-12385214D01*
X16525071Y-12428071D01*
X16496500Y-12456643D01*
X16467928Y-12470929D01*
X16925071Y-12685214D02*
X16753643Y-12685214D01*
X16839357Y-12685214D02*
X16839357Y-12385214D01*
X16810786Y-12428071D01*
X16782214Y-12456643D01*
X16753643Y-12470929D01*
X17282214Y-12685214D02*
X17282214Y-12385214D01*
X17410786Y-12685214D02*
X17410786Y-12528071D01*
X17396500Y-12499500D01*
X17367928Y-12485214D01*
X17325071Y-12485214D01*
X17296500Y-12499500D01*
X17282214Y-12513786D01*
X17596500Y-12685214D02*
X17567928Y-12670929D01*
X17553643Y-12656643D01*
X17539357Y-12628071D01*
X17539357Y-12542357D01*
X17553643Y-12513786D01*
X17567928Y-12499500D01*
X17596500Y-12485214D01*
X17639357Y-12485214D01*
X17667928Y-12499500D01*
X17682214Y-12513786D01*
X17696500Y-12542357D01*
X17696500Y-12628071D01*
X17682214Y-12656643D01*
X17667928Y-12670929D01*
X17639357Y-12685214D01*
X17596500Y-12685214D01*
X17867928Y-12685214D02*
X17839357Y-12670929D01*
X17825071Y-12642357D01*
X17825071Y-12385214D01*
X18096500Y-12670929D02*
X18067928Y-12685214D01*
X18010786Y-12685214D01*
X17982214Y-12670929D01*
X17967928Y-12642357D01*
X17967928Y-12528071D01*
X17982214Y-12499500D01*
X18010786Y-12485214D01*
X18067928Y-12485214D01*
X18096500Y-12499500D01*
X18110786Y-12528071D01*
X18110786Y-12556643D01*
X17967928Y-12585214D01*
X18225071Y-12670929D02*
X18253643Y-12685214D01*
X18310786Y-12685214D01*
X18339357Y-12670929D01*
X18353643Y-12642357D01*
X18353643Y-12628071D01*
X18339357Y-12599500D01*
X18310786Y-12585214D01*
X18267928Y-12585214D01*
X18239357Y-12570929D01*
X18225071Y-12542357D01*
X18225071Y-12528071D01*
X18239357Y-12499500D01*
X18267928Y-12485214D01*
X18310786Y-12485214D01*
X18339357Y-12499500D01*
X18453643Y-12799500D02*
X18467928Y-12785214D01*
X18496500Y-12742357D01*
X18510786Y-12713786D01*
X18525071Y-12670929D01*
X18539357Y-12599500D01*
X18539357Y-12542357D01*
X18525071Y-12470929D01*
X18510786Y-12428071D01*
X18496500Y-12399500D01*
X18467928Y-12356643D01*
X18453643Y-12342357D01*
M02*
