M48
; DRILL file {KiCad (5.1.8)-1} date 01/01/21 08:41:14
; FORMAT={-:-/ absolute / inch / decimal}
; #@! TF.CreationDate,2021-01-01T08:41:14+08:00
; #@! TF.GenerationSoftware,Kicad,Pcbnew,(5.1.8)-1
; #@! TF.FileFunction,Plated,1,2,PTH
FMAT,2
INCH
T1C0.0157
T2C0.0315
T3C0.0394
%
G90
G05
T1
X4.83Y-3.96
X4.86Y-4.005
X4.866Y-3.616
X4.875Y-4.155
X4.9Y-3.95
X4.94Y-3.61
X4.965Y-4.175
X4.97Y-3.93
X4.98Y-4.11
X5.01Y-3.99
X5.08Y-3.98
X5.11Y-3.52
X5.11Y-4.11
X5.12Y-3.61
X5.18Y-3.93
X5.19Y-4.175
X5.22Y-3.86
X5.28Y-3.53
X5.29Y-3.79
X5.35Y-4.175
X5.385Y-4.105
X5.44Y-3.81
X5.52Y-3.46
X5.59Y-3.54
X5.6Y-4.1
X5.6Y-4.175
X5.67Y-3.69
X5.7Y-3.95
X5.71Y-3.75
X5.725Y-4.13
X5.75Y-3.91
X5.775Y-3.96
X5.81Y-3.92
X5.85Y-3.97
X5.85Y-4.15
X5.96Y-3.64
T2
X4.95Y-4.05
X5.1421Y-4.05
T3
X4.7028Y-3.487
X4.7028Y-3.587
X4.7028Y-3.687
X4.7028Y-3.787
X4.7028Y-3.887
X4.7028Y-3.987
X4.7028Y-4.087
X6.1Y-3.63
X6.1Y-3.73
X6.1Y-3.83
X6.1Y-3.93
T0
M30
