%TF.GenerationSoftware,KiCad,Pcbnew,(5.1.8)-1*%
%TF.CreationDate,2021-01-01T00:53:38+08:00*%
%TF.ProjectId,MCP2517FD-Breakout,4d435032-3531-4374-9644-2d427265616b,rev?*%
%TF.SameCoordinates,Original*%
%TF.FileFunction,Legend,Top*%
%TF.FilePolarity,Positive*%
%FSLAX46Y46*%
G04 Gerber Fmt 4.6, Leading zero omitted, Abs format (unit mm)*
G04 Created by KiCad (PCBNEW (5.1.8)-1) date 2021-01-01 00:53:38*
%MOMM*%
%LPD*%
G01*
G04 APERTURE LIST*
%TA.AperFunction,Profile*%
%ADD10C,0.050000*%
%TD*%
%ADD11C,0.120000*%
%ADD12C,0.150000*%
G04 APERTURE END LIST*
D10*
X157480000Y-86360000D02*
X157480000Y-107950000D01*
X119888000Y-86360000D02*
X116840000Y-86360000D01*
X157480000Y-86360000D02*
X119888000Y-86360000D01*
X126746000Y-107950000D02*
X157480000Y-107950000D01*
X116840000Y-107950000D02*
X126746000Y-107950000D01*
X116840000Y-86360000D02*
X116840000Y-107950000D01*
D11*
%TO.C,Y1*%
X131295000Y-105395000D02*
G75*
G03*
X131295000Y-100345000I0J2525000D01*
G01*
X125045000Y-105395000D02*
G75*
G02*
X125045000Y-100345000I0J2525000D01*
G01*
X125045000Y-100345000D02*
X131295000Y-100345000D01*
X125045000Y-105395000D02*
X131295000Y-105395000D01*
%TO.C,U3*%
X148864000Y-98536000D02*
X150814000Y-98536000D01*
X148864000Y-98536000D02*
X146914000Y-98536000D01*
X148864000Y-93416000D02*
X150814000Y-93416000D01*
X148864000Y-93416000D02*
X145414000Y-93416000D01*
%TO.C,U2*%
X132988000Y-93096000D02*
X134248000Y-93096000D01*
X139808000Y-93096000D02*
X138548000Y-93096000D01*
X132988000Y-89336000D02*
X132988000Y-93096000D01*
X139808000Y-87086000D02*
X139808000Y-93096000D01*
%TO.C,U1*%
X131943000Y-95758000D02*
X131943000Y-93808000D01*
X131943000Y-95758000D02*
X131943000Y-97708000D01*
X123073000Y-95758000D02*
X123073000Y-93808000D01*
X123073000Y-95758000D02*
X123073000Y-99208000D01*
%TO.C,TP1*%
X135190000Y-100646000D02*
X136590000Y-100646000D01*
X136590000Y-100646000D02*
X136590000Y-102046000D01*
X136590000Y-102046000D02*
X135190000Y-102046000D01*
X135190000Y-102046000D02*
X135190000Y-100646000D01*
%TO.C,R1*%
X137653500Y-101092724D02*
X137653500Y-100583276D01*
X138698500Y-101092724D02*
X138698500Y-100583276D01*
%TO.C,J2*%
X156270000Y-90872000D02*
X153610000Y-90872000D01*
X156270000Y-98552000D02*
X156270000Y-90872000D01*
X153610000Y-98552000D02*
X153610000Y-90872000D01*
X156270000Y-98552000D02*
X153610000Y-98552000D01*
X156270000Y-99822000D02*
X156270000Y-101152000D01*
X156270000Y-101152000D02*
X154940000Y-101152000D01*
%TO.C,J1*%
X118120000Y-105140000D02*
X120780000Y-105140000D01*
X118120000Y-89840000D02*
X118120000Y-105140000D01*
X120780000Y-89840000D02*
X120780000Y-105140000D01*
X118120000Y-89840000D02*
X120780000Y-89840000D01*
X118120000Y-88570000D02*
X118120000Y-87240000D01*
X118120000Y-87240000D02*
X119450000Y-87240000D01*
%TO.C,D1*%
X139473000Y-100038000D02*
X139473000Y-102498000D01*
X139473000Y-102498000D02*
X140943000Y-102498000D01*
X140943000Y-102498000D02*
X140943000Y-100038000D01*
%TO.C,C7*%
X143354000Y-95650267D02*
X143354000Y-95357733D01*
X144374000Y-95650267D02*
X144374000Y-95357733D01*
%TO.C,C6*%
X124313733Y-90422000D02*
X124606267Y-90422000D01*
X124313733Y-91442000D02*
X124606267Y-91442000D01*
%TO.C,C5*%
X136251733Y-96264000D02*
X136544267Y-96264000D01*
X136251733Y-97284000D02*
X136544267Y-97284000D01*
%TO.C,C4*%
X131574000Y-88245733D02*
X131574000Y-88538267D01*
X130554000Y-88245733D02*
X130554000Y-88538267D01*
%TO.C,C1*%
X150514267Y-100586000D02*
X150221733Y-100586000D01*
X150514267Y-99566000D02*
X150221733Y-99566000D01*
%TD*%
%TO.C,Y1*%
D12*
X134905809Y-104624190D02*
X134905809Y-105100380D01*
X134572476Y-104100380D02*
X134905809Y-104624190D01*
X135239142Y-104100380D01*
X136096285Y-105100380D02*
X135524857Y-105100380D01*
X135810571Y-105100380D02*
X135810571Y-104100380D01*
X135715333Y-104243238D01*
X135620095Y-104338476D01*
X135524857Y-104386095D01*
%TO.C,U3*%
X148102095Y-92028380D02*
X148102095Y-92837904D01*
X148149714Y-92933142D01*
X148197333Y-92980761D01*
X148292571Y-93028380D01*
X148483047Y-93028380D01*
X148578285Y-92980761D01*
X148625904Y-92933142D01*
X148673523Y-92837904D01*
X148673523Y-92028380D01*
X149054476Y-92028380D02*
X149673523Y-92028380D01*
X149340190Y-92409333D01*
X149483047Y-92409333D01*
X149578285Y-92456952D01*
X149625904Y-92504571D01*
X149673523Y-92599809D01*
X149673523Y-92837904D01*
X149625904Y-92933142D01*
X149578285Y-92980761D01*
X149483047Y-93028380D01*
X149197333Y-93028380D01*
X149102095Y-92980761D01*
X149054476Y-92933142D01*
%TO.C,U2*%
X140136095Y-90638380D02*
X140136095Y-91447904D01*
X140183714Y-91543142D01*
X140231333Y-91590761D01*
X140326571Y-91638380D01*
X140517047Y-91638380D01*
X140612285Y-91590761D01*
X140659904Y-91543142D01*
X140707523Y-91447904D01*
X140707523Y-90638380D01*
X141136095Y-90733619D02*
X141183714Y-90686000D01*
X141278952Y-90638380D01*
X141517047Y-90638380D01*
X141612285Y-90686000D01*
X141659904Y-90733619D01*
X141707523Y-90828857D01*
X141707523Y-90924095D01*
X141659904Y-91066952D01*
X141088476Y-91638380D01*
X141707523Y-91638380D01*
%TO.C,U1*%
X121466095Y-95210380D02*
X121466095Y-96019904D01*
X121513714Y-96115142D01*
X121561333Y-96162761D01*
X121656571Y-96210380D01*
X121847047Y-96210380D01*
X121942285Y-96162761D01*
X121989904Y-96115142D01*
X122037523Y-96019904D01*
X122037523Y-95210380D01*
X123037523Y-96210380D02*
X122466095Y-96210380D01*
X122751809Y-96210380D02*
X122751809Y-95210380D01*
X122656571Y-95353238D01*
X122561333Y-95448476D01*
X122466095Y-95496095D01*
%TO.C,TP1*%
X134628095Y-99350380D02*
X135199523Y-99350380D01*
X134913809Y-100350380D02*
X134913809Y-99350380D01*
X135532857Y-100350380D02*
X135532857Y-99350380D01*
X135913809Y-99350380D01*
X136009047Y-99398000D01*
X136056666Y-99445619D01*
X136104285Y-99540857D01*
X136104285Y-99683714D01*
X136056666Y-99778952D01*
X136009047Y-99826571D01*
X135913809Y-99874190D01*
X135532857Y-99874190D01*
X137056666Y-100350380D02*
X136485238Y-100350380D01*
X136770952Y-100350380D02*
X136770952Y-99350380D01*
X136675714Y-99493238D01*
X136580476Y-99588476D01*
X136485238Y-99636095D01*
%TO.C,R1*%
X138009333Y-103830380D02*
X137676000Y-103354190D01*
X137437904Y-103830380D02*
X137437904Y-102830380D01*
X137818857Y-102830380D01*
X137914095Y-102878000D01*
X137961714Y-102925619D01*
X138009333Y-103020857D01*
X138009333Y-103163714D01*
X137961714Y-103258952D01*
X137914095Y-103306571D01*
X137818857Y-103354190D01*
X137437904Y-103354190D01*
X138961714Y-103830380D02*
X138390285Y-103830380D01*
X138676000Y-103830380D02*
X138676000Y-102830380D01*
X138580761Y-102973238D01*
X138485523Y-103068476D01*
X138390285Y-103116095D01*
%TO.C,J2*%
X154606666Y-102322380D02*
X154606666Y-103036666D01*
X154559047Y-103179523D01*
X154463809Y-103274761D01*
X154320952Y-103322380D01*
X154225714Y-103322380D01*
X155035238Y-102417619D02*
X155082857Y-102370000D01*
X155178095Y-102322380D01*
X155416190Y-102322380D01*
X155511428Y-102370000D01*
X155559047Y-102417619D01*
X155606666Y-102512857D01*
X155606666Y-102608095D01*
X155559047Y-102750952D01*
X154987619Y-103322380D01*
X155606666Y-103322380D01*
%TO.C,J1*%
X121586666Y-87844380D02*
X121586666Y-88558666D01*
X121539047Y-88701523D01*
X121443809Y-88796761D01*
X121300952Y-88844380D01*
X121205714Y-88844380D01*
X122586666Y-88844380D02*
X122015238Y-88844380D01*
X122300952Y-88844380D02*
X122300952Y-87844380D01*
X122205714Y-87987238D01*
X122110476Y-88082476D01*
X122015238Y-88130095D01*
%TO.C,D1*%
X139469904Y-103830380D02*
X139469904Y-102830380D01*
X139708000Y-102830380D01*
X139850857Y-102878000D01*
X139946095Y-102973238D01*
X139993714Y-103068476D01*
X140041333Y-103258952D01*
X140041333Y-103401809D01*
X139993714Y-103592285D01*
X139946095Y-103687523D01*
X139850857Y-103782761D01*
X139708000Y-103830380D01*
X139469904Y-103830380D01*
X140993714Y-103830380D02*
X140422285Y-103830380D01*
X140708000Y-103830380D02*
X140708000Y-102830380D01*
X140612761Y-102973238D01*
X140517523Y-103068476D01*
X140422285Y-103116095D01*
%TO.C,C7*%
X141819333Y-95861142D02*
X141771714Y-95908761D01*
X141628857Y-95956380D01*
X141533619Y-95956380D01*
X141390761Y-95908761D01*
X141295523Y-95813523D01*
X141247904Y-95718285D01*
X141200285Y-95527809D01*
X141200285Y-95384952D01*
X141247904Y-95194476D01*
X141295523Y-95099238D01*
X141390761Y-95004000D01*
X141533619Y-94956380D01*
X141628857Y-94956380D01*
X141771714Y-95004000D01*
X141819333Y-95051619D01*
X142152666Y-94956380D02*
X142819333Y-94956380D01*
X142390761Y-95956380D01*
%TO.C,C6*%
X124293333Y-89859142D02*
X124245714Y-89906761D01*
X124102857Y-89954380D01*
X124007619Y-89954380D01*
X123864761Y-89906761D01*
X123769523Y-89811523D01*
X123721904Y-89716285D01*
X123674285Y-89525809D01*
X123674285Y-89382952D01*
X123721904Y-89192476D01*
X123769523Y-89097238D01*
X123864761Y-89002000D01*
X124007619Y-88954380D01*
X124102857Y-88954380D01*
X124245714Y-89002000D01*
X124293333Y-89049619D01*
X125150476Y-88954380D02*
X124960000Y-88954380D01*
X124864761Y-89002000D01*
X124817142Y-89049619D01*
X124721904Y-89192476D01*
X124674285Y-89382952D01*
X124674285Y-89763904D01*
X124721904Y-89859142D01*
X124769523Y-89906761D01*
X124864761Y-89954380D01*
X125055238Y-89954380D01*
X125150476Y-89906761D01*
X125198095Y-89859142D01*
X125245714Y-89763904D01*
X125245714Y-89525809D01*
X125198095Y-89430571D01*
X125150476Y-89382952D01*
X125055238Y-89335333D01*
X124864761Y-89335333D01*
X124769523Y-89382952D01*
X124721904Y-89430571D01*
X124674285Y-89525809D01*
%TO.C,C5*%
X139533333Y-97131142D02*
X139485714Y-97178761D01*
X139342857Y-97226380D01*
X139247619Y-97226380D01*
X139104761Y-97178761D01*
X139009523Y-97083523D01*
X138961904Y-96988285D01*
X138914285Y-96797809D01*
X138914285Y-96654952D01*
X138961904Y-96464476D01*
X139009523Y-96369238D01*
X139104761Y-96274000D01*
X139247619Y-96226380D01*
X139342857Y-96226380D01*
X139485714Y-96274000D01*
X139533333Y-96321619D01*
X140438095Y-96226380D02*
X139961904Y-96226380D01*
X139914285Y-96702571D01*
X139961904Y-96654952D01*
X140057142Y-96607333D01*
X140295238Y-96607333D01*
X140390476Y-96654952D01*
X140438095Y-96702571D01*
X140485714Y-96797809D01*
X140485714Y-97035904D01*
X140438095Y-97131142D01*
X140390476Y-97178761D01*
X140295238Y-97226380D01*
X140057142Y-97226380D01*
X139961904Y-97178761D01*
X139914285Y-97131142D01*
%TO.C,C4*%
X129119333Y-88495142D02*
X129071714Y-88542761D01*
X128928857Y-88590380D01*
X128833619Y-88590380D01*
X128690761Y-88542761D01*
X128595523Y-88447523D01*
X128547904Y-88352285D01*
X128500285Y-88161809D01*
X128500285Y-88018952D01*
X128547904Y-87828476D01*
X128595523Y-87733238D01*
X128690761Y-87638000D01*
X128833619Y-87590380D01*
X128928857Y-87590380D01*
X129071714Y-87638000D01*
X129119333Y-87685619D01*
X129976476Y-87923714D02*
X129976476Y-88590380D01*
X129738380Y-87542761D02*
X129500285Y-88257047D01*
X130119333Y-88257047D01*
%TO.C,C1*%
X150201333Y-101863142D02*
X150153714Y-101910761D01*
X150010857Y-101958380D01*
X149915619Y-101958380D01*
X149772761Y-101910761D01*
X149677523Y-101815523D01*
X149629904Y-101720285D01*
X149582285Y-101529809D01*
X149582285Y-101386952D01*
X149629904Y-101196476D01*
X149677523Y-101101238D01*
X149772761Y-101006000D01*
X149915619Y-100958380D01*
X150010857Y-100958380D01*
X150153714Y-101006000D01*
X150201333Y-101053619D01*
X151153714Y-101958380D02*
X150582285Y-101958380D01*
X150868000Y-101958380D02*
X150868000Y-100958380D01*
X150772761Y-101101238D01*
X150677523Y-101196476D01*
X150582285Y-101244095D01*
%TD*%
M02*
