%FSLAX45Y45*%
G04 Gerber Fmt 4.5, Leading zero omitted, Abs format (unit mm)*
G04 Created by KiCad (PCBNEW (5.1.8)-1) date 2021-01-01 08:41:14*
%MOMM*%
%LPD*%
G01*
G04 APERTURE LIST*
%TA.AperFunction,Profile*%
%ADD10C,0.050000*%
%TD*%
%ADD11C,0.200000*%
%ADD12C,0.300000*%
G04 APERTURE END LIST*
D10*
X15748000Y-8636000D02*
X15748000Y-10795000D01*
X11988800Y-8636000D02*
X11684000Y-8636000D01*
X15748000Y-8636000D02*
X11988800Y-8636000D01*
X12674600Y-10795000D02*
X15748000Y-10795000D01*
X11684000Y-10795000D02*
X12674600Y-10795000D01*
X11684000Y-8636000D02*
X11684000Y-10795000D01*
D11*
D12*
X11967928Y-11263214D02*
X11967928Y-10963214D01*
X12039357Y-10963214D01*
X12082214Y-10977500D01*
X12110786Y-11006072D01*
X12125071Y-11034643D01*
X12139357Y-11091786D01*
X12139357Y-11134643D01*
X12125071Y-11191786D01*
X12110786Y-11220357D01*
X12082214Y-11248929D01*
X12039357Y-11263214D01*
X11967928Y-11263214D01*
X12267928Y-11263214D02*
X12267928Y-11063214D01*
X12267928Y-11120357D02*
X12282214Y-11091786D01*
X12296500Y-11077500D01*
X12325071Y-11063214D01*
X12353643Y-11063214D01*
X12453643Y-11263214D02*
X12453643Y-11063214D01*
X12453643Y-10963214D02*
X12439357Y-10977500D01*
X12453643Y-10991786D01*
X12467928Y-10977500D01*
X12453643Y-10963214D01*
X12453643Y-10991786D01*
X12639357Y-11263214D02*
X12610786Y-11248929D01*
X12596500Y-11220357D01*
X12596500Y-10963214D01*
X12796500Y-11263214D02*
X12767928Y-11248929D01*
X12753643Y-11220357D01*
X12753643Y-10963214D01*
X13139357Y-11263214D02*
X13139357Y-10963214D01*
X13239357Y-11177500D01*
X13339357Y-10963214D01*
X13339357Y-11263214D01*
X13610786Y-11263214D02*
X13610786Y-11106072D01*
X13596500Y-11077500D01*
X13567928Y-11063214D01*
X13510786Y-11063214D01*
X13482214Y-11077500D01*
X13610786Y-11248929D02*
X13582214Y-11263214D01*
X13510786Y-11263214D01*
X13482214Y-11248929D01*
X13467928Y-11220357D01*
X13467928Y-11191786D01*
X13482214Y-11163214D01*
X13510786Y-11148929D01*
X13582214Y-11148929D01*
X13610786Y-11134643D01*
X13753643Y-11063214D02*
X13753643Y-11363214D01*
X13753643Y-11077500D02*
X13782214Y-11063214D01*
X13839357Y-11063214D01*
X13867928Y-11077500D01*
X13882214Y-11091786D01*
X13896500Y-11120357D01*
X13896500Y-11206071D01*
X13882214Y-11234643D01*
X13867928Y-11248929D01*
X13839357Y-11263214D01*
X13782214Y-11263214D01*
X13753643Y-11248929D01*
X14025071Y-11234643D02*
X14039357Y-11248929D01*
X14025071Y-11263214D01*
X14010786Y-11248929D01*
X14025071Y-11234643D01*
X14025071Y-11263214D01*
X14025071Y-11077500D02*
X14039357Y-11091786D01*
X14025071Y-11106072D01*
X14010786Y-11091786D01*
X14025071Y-11077500D01*
X14025071Y-11106072D01*
M02*
